<?xml version="1.0" encoding="UTF-8"?>
<svg id="Layer_4" xmlns="http://www.w3.org/2000/svg" width="32" height="32" version="1.1" viewBox="0 0 32 32">
  <!-- Generator: Adobe Illustrator 29.4.0, SVG Export Plug-In . SVG Version: 2.1.0 Build 152)  -->
  <defs>
    <style>
      .st0 {
        fill: #fff;
      }
    </style>
  </defs>
  <path class="st0" d="M29,29v-2h-1v-2h-1v-2h-1v-2h-1v-2h-1v-2h-1v-2h-1v-2h-1v-2h-1v-2h-1v-2h-1v-2h-1v-2h-2v2h-1v2h-1v2h-1v2h-1v2h-1v2h-1v2h-1v2h-1v2h-1v2h-1v2h-1v2h-1v2h-1v1h28v-1h-1ZM9,20h1s-1,0-1,0h0ZM14,20v-11h1v-1h2v1h1v11h-1v2h-2v-2h-1ZM14,27v-2h1v-1h2v1h1v2h-1v1h-2v-1h-1Z"/>
  <g>
    <polygon points="17 8 15 8 15 9 14 9 14 20 15 20 15 22 17 22 17 20 18 20 18 9 17 9 17 8"/>
    <rect x="15" width="2" height="1"/>
    <path d="M31,29v-2h-1v-2h-1v-2h-1v-2h-1v-2h-1v-2h-1v-2h-1v-2h-1v-2h-1v-2h-1v-2h-1v-2h-1v-2h-1V1h-4v2h-1v2h-1v2h-1v2h-1v2h-1v2h-1v2h-1v2h-1v2h-1v2h-1v2h-1v2h-1v2h-1v2H0v2h1v1h30v-1h1v-2h-1ZM2,30v-1h1v-2h1v-2h1v-2h1v-2h1v-2h1v-2h1v-2h1v-2h1v-2h1v-2h1v-2h1v-2h1v-2h2v2h1v2h1v2h1v2h1v2h1v2h1v2h1v2h1v2h1v2h1v2h1v2h1v2h1v1H2Z"/>
    <polygon points="17 24 15 24 15 25 14 25 14 27 15 27 15 28 17 28 17 27 18 27 18 25 17 25 17 24"/>
  </g>
</svg>