<?xml version="1.0" encoding="UTF-8"?>
<svg id="Layer_4" xmlns="http://www.w3.org/2000/svg" width="32" height="32" version="1.1" viewBox="0 0 32 32">
  <!-- Generator: Adobe Illustrator 29.4.0, SVG Export Plug-In . SVG Version: 2.1.0 Build 152)  -->
  <defs>
    <style>
      .st0 {
        fill: #fff;
      }
    </style>
  </defs>
  <rect class="st0" y="0" width="32" height="32"/>
  <g>
    <path d="M0,0v1h0v30h0v1h32V0H0ZM29,23h-1v2h-1v1h-2v1h-14v-1h2v-1h1v-16h1v-2h1v-1h2v-1h7v1h2v1h1v2h1v14ZM1.1,31V1h8.9v19h-4v1h2v5h-3v1h3v4H1.1Z"/>
    <rect x="20" y="21" width="3" height="3"/>
    <rect x="5" y="5" width="1" height="3"/>
    <rect x="20" y="9" width="3" height="11"/>
  </g>
</svg>