<?xml version="1.0" encoding="UTF-8"?>
<svg id="Layer_6" xmlns="http://www.w3.org/2000/svg" width="32" height="32" version="1.1" viewBox="0 0 32 32">
  <!-- Generator: Adobe Illustrator 29.4.0, SVG Export Plug-In . SVG Version: 2.1.0 Build 152)  -->
  <path d="M31,8v-1h-1v-1h-1v-1h-1v-1h-1v-1h-1v-1h-1v-1h-1V0H8v1h-1v1h-1v1h-1v1h-1v1h-1v1h-1v1h-1v1H0v17h1v1h1v1h1v1h1v1h1v1h1v1h1v1h18v-1h1v-1h1v-1h1v-1h1v-1h1v-1h1v-1h1V8h-1ZM26,17v2h-1v2h-1v2h-1v2h-1v1h-1v1h-6v-1h-1v1h-6v-1h-1V9h1v-1h1v7h1V6h1v-1h1v1h1v8h1V4h1v-1h1v1h1v10h1V6h1v-1h2v13h1v-1h1v-2h1v-1h3v3h-1Z"/>
  <rect x="13" y="25" width="1" height="1"/>
</svg>