<?xml version="1.0" encoding="UTF-8"?>
<svg id="Icon_Layer" xmlns="http://www.w3.org/2000/svg" width="32" height="32" version="1.1" viewBox="0 0 32 32">
  <!-- Generator: Adobe Illustrator 29.4.0, SVG Export Plug-In . SVG Version: 2.1.0 Build 152)  -->
  <defs>
    <style>
      .st0 {
        fill: #fff;
      }
    </style>
  </defs>
  <rect class="st0" width="32" height="32"/>
  <g>
    <path d="M0,0v1h0v30h0v1h32V0H0ZM10,5v15h-4v1h2v5h-3v1h3v4H1.1V1h8.9v4ZM29,23h-1v2h-1v1h-2v1h-14v-1h2v-1h1v-16h1v-2h1v-1h2v-1h7v1h2v1h1v2h1v14Z"/>
    <rect x="20" y="22" width="3" height="3"/>
    <rect x="5" y="5" width="1" height="3"/>
    <polygon points="26 9 25 9 25 8 18 8 18 9 17 9 17 10 16 10 16 13 19 13 19 11 24 11 24 15 23 15 23 16 22 16 22 17 21 17 21 18 20 18 20 19 20 20 20 21 23 21 23 20 24 20 24 19 25 19 25 18 26 18 26 17 26 16 27 16 27 15 27 10 26 10 26 9"/>
  </g>
</svg>