<?xml version="1.0" encoding="utf-8"?>
<!-- Generator: Adobe Illustrator 25.4.1, SVG Export Plug-In . SVG Version: 6.00 Build 0)  -->
<svg version="1.1" id="Layer_2" xmlns="http://www.w3.org/2000/svg" xmlns:xlink="http://www.w3.org/1999/xlink" x="0px" y="0px"
	 viewBox="0 0 9 11" style="enable-background:new 0 0 9 11;" xml:space="preserve">
<g>
	<polygon points="5,0 5,1 4,1 4,2 4,3 5,3 5,2 6,2 6,1 7,1 7,0 	"/>
	<polygon points="7,5 9,5 9,4 8,4 8,3 5,3 5,4 4,4 4,3 1,3 1,4 0,4 0,5 0,6 0,7 0,8 0,9 1,9 1,10 2,10 2,11 4,11 4,10 5,10 5,11 
		7,11 7,10 8,10 8,9 9,9 9,8 9,7 7,7 7,6 	"/>
</g>
</svg>
