<?xml version="1.0" encoding="UTF-8"?>
<svg id="Layer_3" xmlns="http://www.w3.org/2000/svg" width="25" height="30" version="1.1" viewBox="0 0 25 30">
  <!-- Generator: Adobe Illustrator 29.4.0, SVG Export Plug-In . SVG Version: 2.1.0 Build 152)  -->
  <polygon points="14 7 14 6 16 6 16 5 17 5 17 3 18 3 18 0 16 0 16 1 15 1 15 2 13 2 13 4 12 4 12 7 13 7 14 7"/>
  <polygon points="24 21 23 21 23 20 22 20 22 18 21 18 21 13 22 13 22 11 23 11 23 10 24 10 24 9 23 9 23 8 22 8 21 8 21 7 15 7 15 8 10 8 10 7 5 7 5 8 3 8 3 9 2 9 2 10 1 10 1 13 0 13 0 20 1 20 1 23 2 23 2 25 3 25 3 27 4 27 4 28 5 28 5 29 6 29 6 30 10 30 10 29 16 29 16 30 20 30 20 29 21 29 21 28 22 28 22 27 23 27 23 25 24 25 24 23 25 23 25 21 24 21"/>
</svg>