<?xml version="1.0" encoding="utf-8"?>
<!-- Generator: Adobe Illustrator 25.4.1, SVG Export Plug-In . SVG Version: 6.00 Build 0)  -->
<svg version="1.1" id="Layer_2" xmlns="http://www.w3.org/2000/svg" xmlns:xlink="http://www.w3.org/1999/xlink" x="0px" y="0px"
	 viewBox="0 0 32 32" style="enable-background:new 0 0 32 32;" xml:space="preserve">
<rect x="16" y="7" width="2" height="1"/>
<rect x="11" y="6" width="5" height="1"/>
<rect x="10" y="7" width="1" height="1"/>
<polygon points="18,19 18,17 17,17 17,15 15,15 15,14 13,14 13,11 10,11 10,8 9,8 9,11 6,11 6,14 4,14 4,15 2,15 2,17 1,17 1,19 
	0,19 0,26 1,26 1,28 2,28 2,30 4,30 4,31 6,31 6,32 13,32 13,31 15,31 15,30 17,30 17,28 18,28 18,26 19,26 19,19 "/>
<rect x="18" y="8" width="3" height="1"/>
<rect x="20" y="10" width="1" height="1"/>
<rect x="19" y="11" width="1" height="1"/>
<rect x="18" y="12" width="1" height="1"/>
<rect x="21" y="7" width="3" height="1"/>
<rect x="23" y="10" width="1" height="1"/>
<rect x="23" y="12" width="1" height="1"/>
<rect x="23" y="14" width="1" height="1"/>
<rect x="26" y="9" width="1" height="1"/>
<rect x="27" y="10" width="1" height="1"/>
<rect x="28" y="11" width="1" height="1"/>
<rect x="29" y="12" width="1" height="1"/>
<rect x="26" y="6" width="1" height="1"/>
<rect x="28" y="6" width="1" height="1"/>
<rect x="30" y="6" width="1" height="1"/>
<rect x="27" y="1" width="1" height="1"/>
<rect x="26" y="2" width="1" height="1"/>
<rect x="25" y="3" width="1" height="1"/>
<rect x="27.8" width="1" height="1"/>
<rect x="22" y="4" width="1" height="1"/>
<rect x="20" y="5" width="1" height="1"/>
<rect x="18" y="4" width="1" height="1"/>
<rect x="16" y="3" width="1" height="1"/>
<rect x="21" y="2" width="1" height="1"/>
<rect x="20" width="1" height="1"/>
</svg>
