<?xml version="1.0" encoding="utf-8"?>
<!-- Generator: Adobe Illustrator 25.4.1, SVG Export Plug-In . SVG Version: 6.00 Build 0)  -->
<svg version="1.1" id="Layer_2" xmlns="http://www.w3.org/2000/svg" xmlns:xlink="http://www.w3.org/1999/xlink" x="0px" y="0px"
	 viewBox="0 0 14 18" style="enable-background:new 0 0 14 18;" xml:space="preserve">
<style type="text/css">
	.st0{fill:#FFFFFF;}
</style>
<rect x="8" y="7" width="1" height="2"/>
<path d="M13,11v-1H0v1v4v1h1v1h1v1h6v-1h1v-1h4v-1h1v-1v-2v-1H13z M4,16H3v-1H2v-4h1v1v2v1h1V16z M12,14h-1v-2h1V14z"/>
<rect x="2" y="11" class="st0" width="1" height="4"/>
<rect x="3" y="15" class="st0" width="1" height="1"/>
<rect x="9" y="5" width="1" height="2"/>
<rect x="7.1" y="5" width="1" height="2"/>
<rect x="8" y="3" width="1" height="2"/>
<rect x="10" y="3" width="1" height="2"/>
<rect x="9" y="1" width="1" height="2"/>
<rect x="3.9" y="6" width="1" height="2"/>
<rect x="4.9" y="4" width="1" height="2"/>
<rect x="3" y="4" width="1" height="2"/>
<rect x="3.9" y="2" width="1" height="2"/>
<rect x="5.9" y="2" width="1" height="2"/>
<rect x="4.9" width="1" height="2"/>
</svg>
