<?xml version="1.0" encoding="utf-8"?>
<!-- Generator: Adobe Illustrator 25.4.1, SVG Export Plug-In . SVG Version: 6.00 Build 0)  -->
<svg version="1.1" id="Layer_2" xmlns="http://www.w3.org/2000/svg" xmlns:xlink="http://www.w3.org/1999/xlink" x="0px" y="0px"
	 viewBox="0 0 28 22" style="enable-background:new 0 0 28 22;" xml:space="preserve">
<style type="text/css">
	.st0{fill:#FFFFFF;}
</style>
<g>
	<rect x="4" y="1" width="1" height="2"/>
	<rect x="1" y="7" width="4" height="1"/>
	<rect x="10" y="15" width="10" height="1"/>
	<rect x="5" width="1" height="1"/>
	<rect x="6" y="1" width="1" height="2"/>
	<rect x="7" y="2" width="1" height="1"/>
	<polygon points="8,1 8,2 9,2 9,4 10,4 10,2 10,1 	"/>
	<rect x="8" y="4" width="1" height="2"/>
	<rect x="9" y="6" width="1" height="1"/>
	<rect x="3" y="3" width="1" height="1"/>
	<rect x="2" y="4" width="1" height="1"/>
	<rect x="1" y="5" width="1" height="1"/>
	<rect y="6" width="1" height="1"/>
	<rect x="5" y="8" width="1" height="2"/>
	<rect x="6" y="10" width="1" height="10"/>
	<polygon points="6,21 6,20 5,20 5,22 6,22 8,22 8,21 	"/>
	<rect x="8" y="20" width="1" height="1"/>
	<rect x="9" y="16" width="1" height="4"/>
	<rect x="20" y="16" width="1" height="1"/>
	<rect x="21" y="17" width="1" height="1"/>
	<rect x="10" y="7" width="2" height="1"/>
	<polygon points="12,8 12,9 12,10 13,10 13,11 16,11 16,12 20,12 20,11 21,11 21,10 21,9 24,9 24,8 	"/>
	<rect x="24" y="7" width="1" height="1"/>
	<rect x="25" y="6" width="1" height="1"/>
	<polygon points="27,5 27,4 26,4 26,6 27,6 27,9 28,9 28,5 	"/>
	<rect x="26" y="9" width="1" height="1"/>
	<rect x="25" y="10" width="1" height="2"/>
	<rect x="24" y="12" width="1" height="4"/>
	<rect x="25" y="16" width="1" height="4"/>
	<rect x="24" y="20" width="1" height="1"/>
	<rect x="22" y="18" width="1" height="2"/>
	<polygon points="22,21 22,20 21,20 21,22 22,22 24,22 24,21 	"/>
	<rect x="5" y="4" width="1" height="1"/>
	<path class="st0" d="M26,6v1h-1v1h-1v1h-3v2h-1v1h-4v-1h-3v-1h-1V8h-2V7H9V6H8V4h1V2H8v1H6V1H5v2H4v1H3v1H2v1H1v1h1h1h2v1h1v2h1v2
		v3v5H6v1h2v-1h1v-4h1v-1h10v1h1v1h1v1h1v2h-1v1h2v-1h1v-4h-1v-1v-3h1v-2h1V9h1V7V6H26z M5,5V4h1v1H5z"/>
</g>
</svg>
