<?xml version="1.0" encoding="UTF-8"?>
<svg id="Icon_Layer" xmlns="http://www.w3.org/2000/svg" width="32" height="32" version="1.1" viewBox="0 0 32 32">
  <!-- Generator: Adobe Illustrator 29.4.0, SVG Export Plug-In . SVG Version: 2.1.0 Build 152)  -->
  <defs>
    <style>
      .st0 {
        fill: #fff;
      }
    </style>
  </defs>
  <g>
    <polygon class="st0" points="20 14 20 13 20 12 16 12 16 13 15 13 15 14 15 15 19 15 19 14 20 14"/>
    <rect class="st0" x="22" y="5" width="3" height="3"/>
    <rect class="st0" x="12" y="4" width="3" height="3"/>
    <polygon class="st0" points="7 11 6 11 6 12 5 12 5 13 6 13 6 14 7 14 7 13 8 13 8 12 7 12 7 11"/>
    <path class="st0" d="M30,8v-2h-1v-2h-1v-1h-1v-1h-3v-1h-14v1h-2v1h-1v1h-1v1h-1v1h-1v2h-1v3h-1v2h-1v12h1v2h1v1h1v1h1v1h2v1h9v-1h2v-1h1v-1h1v-1h1v-1h1v-1h1v-4h-1v-2h-1v-2.9h-6v-1.1h-1v-1h-1v-2h1v-1h-1v-1h6v1h1v1h1v2h-1v1h-1v1h2v-1h1v-1h2v-1h6v-1h1v-4h-1ZM4,20v-1h3v1h1v3h-1v1h-3v-1h-1v-3h1ZM15,28h-1v1h-3v-1h-1v-3h1v-1h3v1h1v3ZM8,14v1h-3v-1h-1v-3h1v-1h3v1h1v3h-1ZM12,8v-1h-1v-3h1v-1h3v1h1v3h-1v1h-3ZM22,9v-1h-1v-3h1v-1h3.1v1h.9v3h-1v1h-3Z"/>
    <rect class="st0" x="5" y="20" width="1" height="1"/>
    <rect class="st0" x="5" y="22" width="1" height="1"/>
    <rect class="st0" x="6" y="21" width="1" height="1"/>
    <rect class="st0" x="4" y="21" width="1" height="1"/>
  </g>
  <g>
    <g>
      <rect x="22" y="4" width="3" height="1"/>
      <rect x="22" y="14" width="2" height="1"/>
      <rect x="24" y="1" width="3" height="1"/>
      <rect x="22" y="25" width="1" height="1"/>
      <rect x="21" y="26" width="1" height="1"/>
      <rect x="20" y="27" width="1" height="1"/>
      <rect x="19" y="28" width="1" height="1"/>
      <rect x="10" width="14" height="1"/>
      <rect x="7" y="2" width="1" height="1"/>
      <rect x="6" y="3" width="1" height="1"/>
      <rect x="5" y="4" width="1" height="1"/>
      <rect x="4" y="5" width="1" height="1"/>
      <rect x="22" y="8" width="3" height="1"/>
      <rect x="18" y="29" width="1" height="1"/>
      <rect x="16" y="30" width="2" height="1"/>
      <rect x="23" y="21" width="1" height="4"/>
      <rect x="11" y="24" width="3" height="5"/>
      <rect x="14" y="25" width="1" height="3"/>
      <rect x="10" y="25" width="1" height="3"/>
      <rect x="7" y="20" width="1" height="3"/>
      <rect x="3" y="20" width="1" height="3"/>
      <rect x="8" y="11" width="1" height="3"/>
      <rect x="4" y="11" width="1" height="3"/>
      <rect x="15" y="4" width="1" height="3"/>
      <rect x="11" y="4" width="1" height="3"/>
      <rect x="25" y="5" width="1" height="3"/>
      <rect x="21" y="5" width="1" height="3"/>
      <rect x="20" y="12" width="1" height="2"/>
      <rect x="14" y="11" width="1" height="4"/>
      <rect x="12" y="3" width="3" height="1"/>
      <rect x="12" y="7" width="3" height="1"/>
      <rect x="5" y="10" width="3" height="1"/>
      <rect x="5" y="14" width="3" height="1"/>
      <rect x="4" y="19" width="3" height="1"/>
      <rect x="4" y="23" width="3" height="1"/>
      <rect x="15" y="15" width="4" height="1"/>
      <rect x="13" y="12" width="1" height="2"/>
      <rect x="15" y="10" width="4" height="2"/>
      <rect x="15" y="12" width="1" height="1"/>
      <rect x="19" y="11" width="1" height="1"/>
      <rect x="22" y="19" width="1" height="2"/>
      <rect x="21" y="15" width="1" height="4"/>
      <rect x="24" y="13" width="6" height="1"/>
      <rect x="19" y="14" width="1" height="1"/>
      <rect x="30" y="12" width="1" height="1"/>
      <rect x="31" y="8" width="1" height="4"/>
      <rect x="30" y="6" width="1" height="2"/>
      <rect x="29" y="4" width="1" height="2"/>
      <rect x="28" y="3" width="1" height="1"/>
      <rect x="27" y="2" width="1" height="1"/>
      <rect x="13" y="5" width="1" height="1"/>
      <rect x="5" y="11" width="1" height="1"/>
      <rect x="7" y="11" width="1" height="1"/>
      <rect x="7" y="13" width="1" height="1"/>
      <rect x="5" y="13" width="1" height="1"/>
      <rect x="4" y="20" width="1" height="1"/>
      <rect x="6" y="20" width="1" height="1"/>
      <rect x="6" y="22" width="1" height="1"/>
      <rect x="4" y="22" width="1" height="1"/>
      <rect x="5" y="21" width="1" height="1"/>
      <rect x="2" y="27" width="1" height="1"/>
      <rect x="1" y="25" width="1" height="2"/>
      <rect x="4" y="29" width="1" height="1"/>
      <rect x="3" y="28" width="1" height="1"/>
      <rect x="7" y="31" width="9" height="1"/>
      <rect x="5" y="30" width="2" height="1"/>
      <rect x="8" y="1" width="2" height="1"/>
      <rect x="3" y="6" width="1" height="2"/>
      <rect x="2" y="8" width="1" height="3"/>
      <rect x="1" y="11" width="1" height="2"/>
      <rect y="13" width="1" height="12"/>
    </g>
    <rect class="st0" x="13" y="10" width="2" height="1"/>
  </g>
</svg>