<?xml version="1.0" encoding="utf-8"?>
<!-- Generator: Adobe Illustrator 25.4.1, SVG Export Plug-In . SVG Version: 6.00 Build 0)  -->
<svg version="1.1" id="Layer_2" xmlns="http://www.w3.org/2000/svg" xmlns:xlink="http://www.w3.org/1999/xlink" x="0px" y="0px"
	 viewBox="0 0 11 8" style="enable-background:new 0 0 11 8;" xml:space="preserve">
<rect x="2" width="1" height="1"/>
<rect x="6" y="7" width="2" height="1"/>
<rect x="3" y="7" width="2" height="1"/>
<rect x="8" width="1" height="1"/>
<path d="M10,4V3H9V2H8V1H7v1H4V1H3v1H2v1H1v1H0v1v2h1V5h1v1v1h1V6h5v1h1V6V5h1v2h1V5V4H10z M8,3v1H7V3H8z M3,3h1v1H3V3z"/>
</svg>
