<?xml version="1.0" encoding="utf-8"?>
<!-- Generator: Adobe Illustrator 25.4.1, SVG Export Plug-In . SVG Version: 6.00 Build 0)  -->
<svg version="1.1" id="Layer_2" xmlns="http://www.w3.org/2000/svg" xmlns:xlink="http://www.w3.org/1999/xlink" x="0px" y="0px"
	 viewBox="0 0 11 8" style="enable-background:new 0 0 11 8;" xml:space="preserve">
<rect x="9" y="7" width="1" height="1"/>
<rect x="2" width="1" height="1"/>
<rect x="8" width="1" height="1"/>
<path d="M10,1v2H9V2H8V1H7v1H4V1H3v1H2v1H1V1H0v4h1v1h1v1h1V6h5v1h1V6h1V5h1V1H10z M4,3v1H3V3H4z M8,4H7V3h1V4z"/>
<rect x="1" y="7" width="1" height="1"/>
</svg>
