<?xml version="1.0" encoding="utf-8"?>
<!-- Generator: Adobe Illustrator 25.4.1, SVG Export Plug-In . SVG Version: 6.00 Build 0)  -->
<svg version="1.1" id="Layer_2" xmlns="http://www.w3.org/2000/svg" xmlns:xlink="http://www.w3.org/1999/xlink" x="0px" y="0px"
	 viewBox="0 0 12 8" style="enable-background:new 0 0 12 8;" xml:space="preserve">
<path d="M11,2V1H8V0H4v1H1v1H0v1v1v1h2v1H1v1h1v1h2V7H3V6h2V5h2v1h2v1H8v1h2V7h1V6h-1V5h2V4V3V2H11z M3,4V3h2v1H3z M9,4H7V3h2V4z"/>
<rect x="5" y="6" width="2" height="1"/>
</svg>
