<?xml version="1.0" encoding="utf-8"?>
<!-- Generator: Adobe Illustrator 25.4.1, SVG Export Plug-In . SVG Version: 6.00 Build 0)  -->
<svg version="1.1" id="Layer_2" xmlns="http://www.w3.org/2000/svg" xmlns:xlink="http://www.w3.org/1999/xlink" x="0px" y="0px"
	 viewBox="0 0 32 32" style="enable-background:new 0 0 32 32;" xml:space="preserve">
<style type="text/css">
	.st0{fill:#FFFFFF;}
</style>
<polygon class="st0" points="30,3 30,2 29,2 29,1 1,1 1,31 29,31 31,31 31,3 "/>
<rect x="1" width="28" height="1"/>
<rect x="6" y="1" width="1" height="8"/>
<rect x="19" y="2" width="3" height="1"/>
<rect x="7" y="9" width="18" height="1"/>
<rect x="1" y="31" width="30" height="1"/>
<rect x="31" y="3" width="1" height="28"/>
<rect x="18" y="3" width="1" height="4"/>
<rect x="5" y="14" width="22" height="1"/>
<rect x="29" y="1" width="1" height="1"/>
<rect x="30" y="2" width="1" height="1"/>
<rect x="25" y="1" width="1" height="8"/>
<rect y="1" width="1" height="30"/>
<rect x="19" y="7" width="3" height="1"/>
<rect x="22" y="3" width="1" height="4"/>
<rect x="27" y="15" width="1" height="16"/>
<rect x="4" y="15" width="1" height="16"/>
</svg>
