<?xml version="1.0" encoding="UTF-8"?>
<svg id="Layer_3" xmlns="http://www.w3.org/2000/svg" version="1.1" viewBox="0 0 32 16">
  <!-- Generator: Adobe Illustrator 29.4.0, SVG Export Plug-In . SVG Version: 2.1.0 Build 152)  -->
  <defs>
    <style>
      .st0 {
        fill: #fff;
      }
    </style>
  </defs>
  <path d="M26,2v13s3,0,3,0v1s3,0,3,0V1s-3,0-3,0v1h-2s-1,0-1,0ZM27,3h2v11h-2V3Z"/>
  <rect x="25" y="3" width="1" height="1" transform="translate(51 7) rotate(-180)"/>
  <rect x="25" y="13" width="1" height="1" transform="translate(51 27) rotate(-180)"/>
  <rect x="23" y="2" width="2" height="1" transform="translate(48 5) rotate(-180)"/>
  <rect x="21" y="1" width="2" height="1" transform="translate(44 3) rotate(-180)"/>
  <rect x="22" y="14" width="3" height="1" transform="translate(47 29) rotate(-180)"/>
  <rect x="16" y="15" width="6" height="1" transform="translate(38 31) rotate(-180)"/>
  <rect x="10" y="0" width="11" height="1" transform="translate(31 1) rotate(-180)"/>
  <rect x="17" y="5" width="1" height="1" transform="translate(35 11) rotate(-180)"/>
  <rect x="12" y="2" width="1" height="1" transform="translate(25 5) rotate(-180)"/>
  <rect x="13" y="6" width="4" height="1" transform="translate(30 13) rotate(-180)"/>
  <rect x="16" y="7" width="1" height="2" transform="translate(33 16) rotate(-180)"/>
  <rect x="17" y="9" width="1" height="2" transform="translate(35 20) rotate(-180)"/>
  <rect x="18" y="11" width="1" height="2" transform="translate(37 24) rotate(-180)"/>
  <rect x="14" y="9" width="2" height="1" transform="translate(30 19) rotate(-180)"/>
  <rect x="15" y="11" width="2" height="1" transform="translate(32 23) rotate(-180)"/>
  <rect x="16" y="13" width="2" height="1" transform="translate(34 27) rotate(-180)"/>
  <rect x="10" y="3" width="2" height="1" transform="translate(22 7) rotate(-180)"/>
  <rect x="5" y="1" width="5" height="1" transform="translate(15 3) rotate(-180)"/>
  <rect x="1" y="5" width="6" height="1" transform="translate(8 11) rotate(-180)"/>
  <rect x="1" y="2" width="4" height="1" transform="translate(6 5) rotate(-180)"/>
  <rect x="7" y="4" width="3" height="1" transform="translate(17 9) rotate(-180)"/>
  <rect x="8" y="7" width="5" height="1" transform="translate(21 15) rotate(-180)"/>
  <rect x="9" y="10" width="5" height="1" transform="translate(23 21) rotate(-180)"/>
  <rect x="11" y="12" width="4" height="1" transform="translate(26 25) rotate(-180)"/>
  <rect x="12" y="14" width="4" height="1" transform="translate(28 29) rotate(-180)"/>
  <rect x="7" y="5" width="1" height="2" transform="translate(15 12) rotate(-180)"/>
  <rect x="8" y="8" width="1" height="2" transform="translate(17 18) rotate(-180)"/>
  <rect x="10" y="11" width="1" height="1" transform="translate(21 23) rotate(-180)"/>
  <rect x="11" y="13" width="1" height="1" transform="translate(23 27) rotate(-180)"/>
  <rect x="0" y="3" width="1" height="2" transform="translate(1 8) rotate(-180)"/>
  <rect class="st0" x="27" y="3" width="2" height="11" transform="translate(56 17) rotate(-180)"/>
  <rect class="st0" x="18" y="13" width="7" height="1" transform="translate(43 27) rotate(-180)"/>
  <g>
    <polygon class="st0" points="19 11 18 11 18 9 17 9 17 6 18 6 18 1 19 1 21 1 21 2 23 2 23 3 25 3 25 4 26 4 26 13 19 13 19 11"/>
    <rect class="st0" x="16" y="14" width="6" height="1"/>
  </g>
  <rect class="st0" x="9" y="8" width="5" height="2" transform="translate(23 18) rotate(-180)"/>
  <polygon class="st0" points="10 5 10 4 12 4 12 3 13 3 13 1 18 1 18 5 17 5 17 6 13 6 13 7 12 7 8 7 8 5 10 5"/>
  <rect class="st0" x="14" y="8" width="2" height="1" transform="translate(30 17) rotate(-180)"/>
  <rect class="st0" x="13" y="7" width="3" height="1" transform="translate(29 15) rotate(-180)"/>
  <polygon class="st0" points="5 3 5 2 10 2 10 1 13 1 13 2 12 2 12 3 10 3 10 4 7 4 7 5 1 5 1 4 1 3 5 3"/>
  <polygon class="st0" points="15 13 15 12 17 12 17 11 18 11 18 12 18 13 16 13 16 14 12 14 12 13 15 13"/>
  <polygon class="st0" points="14 11 14 10 16 10 16 9 17 9 17 10 17 11 15 11 15 12 11 12 11 11 14 11"/>
</svg>