<?xml version="1.0" encoding="UTF-8"?>
<svg id="Layer_2" xmlns="http://www.w3.org/2000/svg" version="1.1" viewBox="0 0 32 32">
  <!-- Generator: Adobe Illustrator 29.4.0, SVG Export Plug-In . SVG Version: 2.1.0 Build 152)  -->
  <defs>
    <style>
      .st0 {
        fill: #fff;
      }
    </style>
  </defs>
  <g>
    <rect x="8" y="30" width="15" height="2"/>
    <rect x="2" y="16" width="2" height="13"/>
    <rect x="27" y="16" width="2" height="13"/>
    <rect x="12" y="16" width="7" height="11"/>
    <rect x="6" y="17" width="4" height="3"/>
    <rect x="21" y="17" width="4" height="3"/>
    <rect x="6" y="23" width="4" height="2"/>
    <rect x="21" y="23" width="4" height="2"/>
    <rect x="6" y="20" width="1" height="3"/>
    <rect x="9" y="20" width="1" height="3"/>
    <rect x="21" y="20" width="1" height="3"/>
    <rect x="24" y="20" width="1" height="3"/>
    <rect x="4" y="27" width="7" height="2"/>
    <rect x="20" y="27" width="7" height="2"/>
    <rect x="11" y="27" width="1" height="1"/>
    <rect x="19" y="27" width="1" height="1"/>
    <rect x="8" y="29" width="2" height="1"/>
    <rect x="21" y="29" width="2" height="1"/>
    <rect x="5" y="5" width="4" height="7"/>
    <rect y="16" width="2" height="1"/>
    <rect x="1" y="15" width="4" height="1"/>
    <rect x="2" y="14" width="4" height="1"/>
    <rect x="3" y="13" width="4" height="1"/>
    <rect x="4" y="12" width="4" height="1"/>
    <rect x="19" y="8" width="4" height="1"/>
    <rect x="20" y="9" width="4" height="1"/>
    <rect x="21" y="10" width="4" height="1"/>
    <rect x="22" y="11" width="4" height="1"/>
    <rect x="23" y="12" width="4" height="1"/>
    <rect x="24" y="13" width="4" height="1"/>
    <rect x="25" y="14" width="4" height="1"/>
    <rect x="26" y="15" width="4" height="1"/>
    <rect x="29" y="16" width="2" height="1"/>
    <rect x="18" y="7" width="4" height="1"/>
    <rect x="17" y="6" width="4" height="1"/>
    <rect x="16" y="5" width="4" height="1"/>
    <rect x="12" y="4" width="7" height="1"/>
    <rect x="13" y="3" width="5" height="1"/>
    <rect x="14" y="2" width="3" height="1"/>
    <rect x="15" y="1" width="1" height="1"/>
    <rect x="11" y="5" width="4" height="1"/>
    <rect x="10" y="6" width="4" height="1"/>
    <rect x="9" y="7" width="4" height="1"/>
    <rect x="9" y="8" width="3" height="1"/>
    <rect x="9" y="10" width="1" height="1"/>
    <rect x="9" y="9" width="2" height="1"/>
  </g>
  <polygon class="st0" points="20 29 20 28 19 28 19 27 12 27 12 28 11 28 11 29 10 29 10 30 12 30 19 30 21 30 21 29 20 29"/>
  <path class="st0" d="M25,16h-6v11h8v-11h-2ZM21,25v-8h4v8h-4Z"/>
  <path class="st0" d="M10,16h-6v11h8v-11h-2ZM6,25v-8h4v8h-4Z"/>
  <polygon class="st0" points="25 15 25 14 24 14 24 13 23 13 23 12 22 12 22 11 21 11 21 10 20 10 20 9 19 9 19 8 18 8 18 7 17 7 17 6 16 6 16 5 15 5 15 6 14 6 14 7 13 7 13 8 12 8 12 9 11 9 11 10 10 10 10 11 9 11 9 12 8 12 8 13 7 13 7 14 6 14 6 15 5 15 5 16 7 16 24 16 26 16 26 15 25 15"/>
  <rect class="st0" x="7" y="20" width="2" height="3"/>
  <rect class="st0" x="22" y="20" width="2" height="3"/>
</svg>