<?xml version="1.0" encoding="UTF-8"?>
<svg xmlns="http://www.w3.org/2000/svg" width="16" height="14" version="1.1" viewBox="0 0 16 14">
  <!-- Generator: Adobe Illustrator 29.4.0, SVG Export Plug-In . SVG Version: 2.1.0 Build 152)  -->
  <defs>
    <style>
      .st0 {
        fill: #fff;
      }
    </style>
  </defs>
  <g id="Layer_6">
    <g>
      <rect x="9" width="2" height="1"/>
      <rect x="11" y="1" width="2" height="1"/>
      <rect x="7" y="1" width="2" height="1"/>
      <rect x="5" y="2" width="2" height="1"/>
      <rect x="3" y="3" width="2" height="1"/>
      <rect x="1" y="4" width="2" height="1"/>
      <rect x="7" y="10" width="2" height="1"/>
      <rect x="5" y="11" width="2" height="1"/>
      <rect x="3" y="12" width="2" height="1"/>
      <rect x="11" y="10" width="2" height="1"/>
      <rect x="9" y="11" width="2" height="1"/>
      <rect x="7" y="12" width="2" height="1"/>
      <rect x="5" y="13" width="2" height="1"/>
      <rect x="13" y="2" width="2" height="1"/>
      <rect x="8" y="3" width="4" height="1"/>
      <polygon points="3 10 3 9 1 9 1 8 3 8 3 7 1 7 1 5 0 5 0 11 1 11 1 10 3 10"/>
      <rect x="1" y="11" width="2" height="1"/>
      <polygon points="7 5 4 5 4 6 6 6 6 7 7 7 7 6 7 5"/>
      <polygon points="8 8 8 7 7 7 7 8 7 9 9 9 9 10 11 10 11 9 13 9 13 8 8 8"/>
      <rect x="5" y="9" width="2" height="1"/>
      <rect x="3" y="10" width="2" height="1"/>
      <rect x="3" y="8" width="2" height="1"/>
      <polygon points="9 6 9 7 10 7 10 6 11 6 11 5 8 5 8 6 9 6"/>
      <polygon points="15 3 15 4 14 4 14 5 13 5 13 6 14 6 14 9 13 9 13 10 16 10 16 9 16 4 16 3 15 3"/>
      <rect x="12" y="4" width="1" height="1"/>
      <rect x="7" y="4" width="1" height="1"/>
    </g>
  </g>
  <g id="Layer_3">
    <g>
      <polygon class="st0" points="12 4 8 4 8 5 11 5 11 6 10 6 10 7 9 7 9 6 8 6 8 5 7 5 7 6 7 7 8 7 8 8 10 8 13 8 13 9 14 9 14 8 14 6 13 6 13 5 12 5 12 4"/>
      <polygon class="st0" points="13 3 13 2 11 2 11 1 9 1 9 2 7 2 7 3 5 3 5 4 3 4 3 5 1 5 1 7 3 7 3 8 5 8 5 9 7 9 7 7 6 7 6 6 4 6 4 5 7 5 7 4 8 4 8 3 12 3 12 4 13 4 13 5 14 5 14 4 15 4 15 3 13 3"/>
      <rect class="st0" x="1" y="8" width="2" height="1"/>
      <rect class="st0" x="3" y="9" width="2" height="1"/>
      <rect class="st0" x="7" y="9" width="2" height="1"/>
      <rect class="st0" x="11" y="9" width="2" height="1"/>
      <rect class="st0" x="9" y="10" width="2" height="1"/>
      <rect class="st0" x="7" y="11" width="2" height="1"/>
      <rect class="st0" x="5" y="10" width="2" height="1"/>
      <rect class="st0" x="5" y="12" width="2" height="1"/>
      <rect class="st0" x="1" y="10" width="2" height="1"/>
      <rect class="st0" x="3" y="11" width="2" height="1"/>
    </g>
  </g>
</svg>