<?xml version="1.0" encoding="UTF-8"?>
<svg xmlns="http://www.w3.org/2000/svg" width="32" height="29" version="1.1" viewBox="0 0 32 29">
  <!-- Generator: Adobe Illustrator 29.4.0, SVG Export Plug-In . SVG Version: 2.1.0 Build 152)  -->
  <defs>
    <style>
      .st0 {
        fill: #fff;
      }
    </style>
  </defs>
  <g id="Layer_3">
    <g>
      <polygon class="st0" points="31 9 31 6 29 6 29 5 27 5 27 4 25 4 25 3 23 3 23 2 21 2 21 1 19 1 19 2 17 2 17 3 15 3 15 4 13 4 13 5 11 5 11 6 9 6 9 7 7 7 7 8 5 8 5 9 3 9 3 10 1 10 1 13 3 13 3 14 5 14 5 15 7 15 7 16 20 16 20 15 21 15 21 14 23 14 23 13 24 13 24 12 26 12 26 11 27 11 27 10 29 10 29 9 31 9"/>
      <polygon class="st0" points="18 17 18 16 9 16 9 17 11 17 11 18 13 18 13 19 15 19 15 18 17 18 17 17 18 17"/>
      <polygon class="st0" points="27 11 27 12 26 12 26 13 24 13 24 14 23 14 23 15 21 15 21 16 20 16 20 17 18 17 18 18 17 18 17 19 15 19 15 20 13 20 13 19 11 19 11 18 9 18 9 17 7 17 7 16 5 16 5 15 3 15 3 14 2 14 2 15 1 15 1 16 1 17 4 17 4 18 6 18 6 19 8 19 8 20 10 20 10 21 12 21 12 22 10 22 10 21 8 21 8 20 6 20 6 19 4 19 4 18 2 18 2 19 3 19 3 20 5 20 5 21 7 21 7 22 9 22 9 23 11 23 11 24 13 24 13 25 14 25 14 24 16 24 16 23 17 23 17 22 19 22 19 21 20 21 20 20 22 20 22 19 23 19 23 18 25 18 25 17 26 17 26 16 28 16 28 15 29 15 29 14 31 14 31 13 28 13 28 14 27 14 27 15 25 15 25 16 24 16 24 17 22 17 22 18 21 18 21 19 19 19 19 20 18 20 18 21 16 21 16 22 15 22 15 23 12.5 23 12.5 22 15 22 15 21 16 21 16 20 18 20 18 19 19 19 19 18 21 18 21 17 22 17 22 16 24 16 24 15 25 15 25 14 27 14 27 13 28 13 28 12 30 12 30 11 31 11 31 10 29 10 29 11 27 11"/>
      <polygon class="st0" points="28 16 28 17 26 17 26 18 25 18 25 19 23 19 23 20 22 20 22 21 20 21 20 22 19 22 19 23 17 23 17 24 16 24 16 25 14 25 14 26 13 26 13 25 11 25 11 24 9 24 9 23 7 23 7 22 5 22 5 21 3 21 3 22 3 23 5 23 5 24 7 24 7 25 9 25 9 26 11 26 11 27 13 27 13 28 15 28 15 27 16 27 16 26 18 26 18 25 19 25 19 24 21 24 21 23 22 23 22 22 24 22 24 21 25 21 25 20 27 20 27 19 28 19 28 18 30 18 30 17 31 17 31 16 31 15 29 15 29 16 28 16"/>
    </g>
  </g>
  <g id="Layer_6">
    <g>
      <rect x="19" width="2" height="1"/>
      <rect x="13" y="3" width="2" height="1"/>
      <rect x="29" y="5" width="2" height="1"/>
      <rect x="27" y="4" width="2" height="1"/>
      <rect x="25" y="3" width="2" height="1"/>
      <rect x="23" y="2" width="2" height="1"/>
      <rect x="15" y="2" width="2" height="1"/>
      <rect x="17" y="1" width="2" height="1"/>
      <rect x="21" y="1" width="2" height="1"/>
      <rect x="1" y="9" width="2" height="1"/>
      <rect x="3" y="8" width="2" height="1"/>
      <rect x="5" y="7" width="2" height="1"/>
      <rect x="7" y="6" width="2" height="1"/>
      <rect x="9" y="5" width="2" height="1"/>
      <rect x="11" y="4" width="2" height="1"/>
      <rect x="15" y="18" width="2" height="1"/>
      <rect x="18" y="16" width="2" height="1"/>
      <rect x="21" y="14" width="2" height="1"/>
      <rect x="24" y="12" width="2" height="1"/>
      <rect x="27" y="10" width="2" height="1"/>
      <rect x="29" y="9" width="2" height="1"/>
      <rect x="11" y="18" width="2" height="1"/>
      <rect x="9" y="17" width="2" height="1"/>
      <rect x="7" y="16" width="2" height="1"/>
      <rect x="5" y="15" width="2" height="1"/>
      <rect x="3" y="14" width="2" height="1"/>
      <rect x="1" y="13" width="2" height="1"/>
      <rect x="8" y="20" width="2" height="1"/>
      <rect x="10" y="21" width="2" height="1"/>
      <rect x="16" y="20" width="2" height="1"/>
      <rect x="25" y="14" width="2" height="1"/>
      <rect x="22" y="16" width="2" height="1"/>
      <rect x="19" y="18" width="2" height="1"/>
      <rect x="13" y="19" width="2" height="1"/>
      <rect x="9" y="23" width="2" height="1"/>
      <rect x="7" y="22" width="2" height="1"/>
      <rect x="5" y="21" width="2" height="1"/>
      <rect x="3" y="20" width="2" height="1"/>
      <rect x="4" y="18" width="2" height="1"/>
      <rect x="6" y="19" width="2" height="1"/>
      <rect x="17" y="22" width="2" height="1"/>
      <rect x="20" y="20" width="2" height="1"/>
      <rect x="23" y="18" width="2" height="1"/>
      <rect x="26" y="16" width="2" height="1"/>
      <rect x="29" y="14" width="2" height="1"/>
      <rect x="13" y="28" width="2" height="1"/>
      <rect x="11" y="27" width="2" height="1"/>
      <rect x="9" y="26" width="2" height="1"/>
      <rect x="7" y="25" width="2" height="1"/>
      <rect x="5" y="24" width="2" height="1"/>
      <rect x="3" y="23" width="2" height="1"/>
      <rect x="25" y="20" width="2" height="1"/>
      <rect x="22" y="22" width="2" height="1"/>
      <rect x="19" y="24" width="2" height="1"/>
      <rect x="16" y="26" width="2" height="1"/>
      <rect x="14" y="24" width="2" height="1"/>
      <rect x="11" y="24" width="2" height="1"/>
      <rect x="28" y="18" width="2" height="1"/>
      <rect x="12" y="22" width="3" height="1"/>
      <rect x="1" y="17" width="3" height="1"/>
      <rect x="28" y="12" width="3" height="1"/>
      <rect x="1" y="14" width="1" height="1"/>
      <rect x="31" y="13" width="1" height="1"/>
      <rect x="30" y="11" width="1" height="1"/>
      <rect x="31" y="10" width="1" height="1"/>
      <rect x="26" y="11" width="1" height="1"/>
      <rect x="23" y="13" width="1" height="1"/>
      <rect x="20" y="15" width="1" height="1"/>
      <rect x="17" y="17" width="1" height="1"/>
      <rect x="1" y="18" width="1" height="1"/>
      <rect x="22" y="19" width="1" height="1"/>
      <rect x="15" y="21" width="1" height="1"/>
      <rect x="18" y="19" width="1" height="1"/>
      <rect x="21" y="17" width="1" height="1"/>
      <rect x="24" y="15" width="1" height="1"/>
      <rect x="27" y="13" width="1" height="1"/>
      <rect x="21" y="23" width="1" height="1"/>
      <rect x="24" y="21" width="1" height="1"/>
      <rect x="27" y="19" width="1" height="1"/>
      <rect x="30" y="17" width="1" height="1"/>
      <rect x="16" y="23" width="1" height="1"/>
      <rect x="19" y="21" width="1" height="1"/>
      <rect x="25" y="17" width="1" height="1"/>
      <rect x="28" y="15" width="1" height="1"/>
      <rect x="18" y="25" width="1" height="1"/>
      <rect x="1" y="19" width="2" height="1"/>
      <rect y="15" width="1" height="2"/>
      <rect x="31" y="6" width="1" height="3"/>
      <rect x="15" y="27" width="1" height="1"/>
      <rect x="13" y="25" width="1" height="1"/>
      <rect y="10" width="1" height="3"/>
      <rect x="2" y="20" width="1" height="3"/>
      <rect x="31" y="15" width="1" height="2"/>
    </g>
  </g>
</svg>