<?xml version="1.0" encoding="UTF-8"?>
<svg id="Icon_Layer" xmlns="http://www.w3.org/2000/svg" version="1.1" viewBox="0 0 23 21">
  <!-- Generator: Adobe Illustrator 29.4.0, SVG Export Plug-In . SVG Version: 2.1.0 Build 152)  -->
  <defs>
    <style>
      .st0 {
        fill: #fff;
      }
    </style>
  </defs>
  <polygon class="st0" points="14 1 14 7 13 7 13 8 14 8 14 8.1 10 8.1 10 8 8 8 8 7 8 6 8 5 8 4 7 4 7 5 6 5 6 6 5 6 5 7 4 7 4 8 3 8 3 9 2 9 2 10 1 10 1 11 2 11 2 12 3 12 3 13 4 13 4 14 5 14 5 15 6 15 6 16 7 16 7 17 8 17 8 16 8 15 8 14 19 14 19 13 19 12 20 12 20 1 14 1"/>
  <g>
    <rect x="6" y="4" width="1" height="1"/>
    <rect x="5" y="5" width="1" height="1"/>
    <polygon points="8 7 8 8 13 8 13 7 11 7 11 4 11 3 10 3 10 4 9 4 9 2 8 2 8 3 7 3 7 4 8 4 8 7"/>
    <rect x="4" y="6" width="1" height="1"/>
    <rect x="3" y="7" width="1" height="1"/>
    <rect x="2" y="8" width="1" height="1"/>
    <rect x="1" y="9" width="1" height="1"/>
    <rect y="10" width="1" height="1"/>
    <rect x="1" y="11" width="1" height="1"/>
    <rect x="2" y="12" width="1" height="1"/>
    <rect x="3" y="13" width="1" height="1"/>
    <rect x="4" y="14" width="1" height="1"/>
    <rect x="5" y="15" width="1" height="1"/>
    <rect x="6" y="16" width="1" height="1"/>
    <polygon points="21 1 21 0 20 0 13 0 13 1 13 7 14 7 14 1 20 1 20 12 19 12 19 13 18 13 18 14 8 14 8 17 7 17 7 18 8 18 8 19 9 19 9 20 10 20 10 21 11 21 11 17 18 17 19 17 19 16 20 16 20 15 21 15 21 14 22 14 22 13 23 13 23 1 21 1"/>
  </g>
</svg>