<?xml version="1.0" encoding="utf-8"?>
<!-- Generator: Adobe Illustrator 25.4.1, SVG Export Plug-In . SVG Version: 6.00 Build 0)  -->
<svg version="1.1" id="Layer_2" xmlns="http://www.w3.org/2000/svg" xmlns:xlink="http://www.w3.org/1999/xlink" x="0px" y="0px"
	 viewBox="0 0 25 32" style="enable-background:new 0 0 25 32;" xml:space="preserve">
<style type="text/css">
	.st0{fill:#FFFFFF;}
</style>
<polygon class="st0" points="23,2 23,1 2,1 2,2 1,2 1,27 24,27 24,2 "/>
<rect x="0" y="2" width="1" height="25"/>
<rect x="2" width="21" height="1"/>
<rect x="15" y="22" width="6" height="1"/>
<rect x="1" y="1" width="1" height="1"/>
<rect x="23" y="1" width="1" height="1"/>
<rect x="24" y="2" width="1" height="25"/>
<path d="M1,27v1v3v1h23v-1v-3v-1H1z M23,31H2v-3h21V31z"/>
<rect x="3" y="23" width="2" height="1"/>
<rect x="10" y="6" width="1" height="1"/>
<rect x="6" y="6" width="1" height="1"/>
<rect x="4" y="3" width="17" height="1"/>
<rect x="3" y="4" width="1" height="13"/>
<rect x="21" y="4" width="1" height="13"/>
<rect x="4" y="17" width="17" height="1"/>
<rect x="2" y="28" class="st0" width="21" height="3"/>
<rect x="8" y="6" width="1" height="1"/>
<rect x="16" y="6" width="1" height="1"/>
<rect x="12" y="6" width="1" height="1"/>
<rect x="14" y="6" width="1" height="1"/>
<rect x="10" y="8" width="1" height="1"/>
<rect x="6" y="8" width="1" height="1"/>
<rect x="8" y="8" width="1" height="1"/>
<rect x="12" y="8" width="1" height="1"/>
<rect x="6" y="10" width="1" height="1"/>
<rect x="8" y="10" width="1" height="1"/>
<rect x="6" y="12" width="1" height="1"/>
<rect x="8" y="12" width="1" height="1"/>
<rect x="10" y="14" width="1" height="1"/>
<rect x="6" y="14" width="1" height="1"/>
<rect x="8" y="14" width="1" height="1"/>
</svg>
