<?xml version="1.0" encoding="UTF-8"?>
<svg xmlns="http://www.w3.org/2000/svg" version="1.1" viewBox="0 0 32 32">
  <!-- Generator: Adobe Illustrator 29.4.0, SVG Export Plug-In . SVG Version: 2.1.0 Build 152)  -->
  <defs>
    <style>
      .st0 {
        fill: #fff;
      }
    </style>
  </defs>
  <g id="Layer_3">
    <g>
      <polygon points="17 4 17 5 16 5 16 6 15 6 15 7 14 7 14 8 14 9 15 9 15 8 16 8 16 9 15 9 15 10 15 11 16 11 16 12 17 12 17 11 18 11 18 10 19 10 19 9 20 9 20 8 21 8 21 7 22 7 22 6 21 6 21 5 20 5 20 4 19 4 19 3 18 3 18 4 17 4"/>
      <rect x="10" y="5" width="1" height="1"/>
      <rect x="11" y="4" width="1" height="1"/>
      <rect x="12" y="3" width="1" height="1"/>
      <rect x="13" y="2" width="1" height="1"/>
      <rect x="14" y="1" width="1" height="1"/>
      <rect x="17" y="2" width="1" height="1"/>
      <rect x="16" y="1" width="1" height="1"/>
      <rect x="15" width="1" height="1"/>
      <rect x="24" y="9" width="1" height="1"/>
      <rect x="23" y="8" width="1" height="1"/>
      <rect x="22" y="7" width="1" height="1"/>
      <rect x="25" y="10" width="1" height="1"/>
      <rect x="30" y="15" width="1" height="1"/>
      <rect x="29" y="14" width="1" height="1"/>
      <rect x="28" y="13" width="1" height="1"/>
      <rect x="27" y="12" width="1" height="1"/>
      <rect x="26" y="11" width="1" height="1"/>
      <rect x="25" y="16" width="1" height="1"/>
      <rect x="26" y="17" width="1" height="1"/>
      <rect x="27" y="18" width="1" height="1"/>
      <polygon points="29 18 29 19 28 19 28 20 29 20 29 25 27 25 27 26 29 26 29 27 32 27 32 19 30 19 30 18 29 18"/>
      <rect x="30" y="17" width="1" height="1"/>
      <rect x="31" y="16" width="1" height="1"/>
      <rect x="16" y="22" width="1" height="1"/>
      <rect x="15" y="21" width="1" height="1"/>
      <rect x="16" y="16" width="1" height="1"/>
      <rect x="17" y="15" width="1" height="1"/>
      <polygon points="24 15.9 25 15.9 25 14.9 24 14.9 24 14 18 14 18 15 24 15 24 15.9"/>
      <rect x="12" y="15" width="1" height="1"/>
      <rect x="15" y="12" width="1" height="1"/>
      <rect x="14" y="13" width="1" height="1"/>
      <rect x="14" y="11" width="1" height="1"/>
      <rect x="12" y="10" width="1" height="1"/>
      <rect x="13" y="9" width="1" height="1"/>
      <polygon points="15 19 13 19 13 18 12 18 12 17 12 16 11 16 11 17 10 17 10 19 11 19 11 20 14 20 14 21 15 21 15 20 15 19"/>
      <rect x="17" y="23" width="2" height="1"/>
      <rect x="18" y="17" width="2" height="1"/>
      <polygon points="17 20 18 20 18 21 20 21 20 20 25 20 25 19 21 19 21 18 20 18 20 19 18 19 18 18 16 18 16 17 15 17 15 18 15 19 17 19 17 20"/>
      <polygon points="19 24 19 25 22 25 22 26 23 26 23 25 27 25 27 24 19 24"/>
      <rect x="4" y="11" width="1" height="1"/>
      <rect x="5" y="10" width="1" height="1"/>
      <rect x="6" y="9" width="1" height="1"/>
      <rect x="7" y="8" width="1" height="1"/>
      <rect x="8" y="7" width="1" height="1"/>
      <rect x="9" y="6" width="1" height="1"/>
      <rect y="15" width="1" height="1"/>
      <rect x="1" y="14" width="1" height="1"/>
      <rect x="2" y="13" width="1" height="1"/>
      <rect x="3" y="12" width="1" height="1"/>
      <rect x="3" y="18" width="1" height="1"/>
      <rect x="2" y="17" width="1" height="1"/>
      <rect x="1" y="16" width="1" height="1"/>
      <rect x="8" y="23" width="1" height="1"/>
      <rect x="7" y="22" width="1" height="1"/>
      <rect x="6" y="21" width="1" height="1"/>
      <rect x="5" y="20" width="1" height="1"/>
      <rect x="4" y="19" width="1" height="1"/>
      <rect x="9" y="24" width="1" height="1"/>
      <rect x="10" y="25" width="1" height="1"/>
      <rect x="13" y="28" width="1" height="1"/>
      <rect x="12" y="27" width="1" height="1"/>
      <rect x="11" y="26" width="1" height="1"/>
      <rect x="14" y="29" width="1" height="1"/>
      <rect x="15" y="30" width="1" height="1"/>
      <rect x="21" y="26" width="1" height="1"/>
      <rect x="16" y="31" width="1" height="1"/>
      <rect x="17" y="30" width="1" height="1"/>
      <rect x="18" y="29" width="1" height="1"/>
      <rect x="19" y="28" width="1" height="1"/>
      <rect x="20" y="27" width="1" height="1"/>
    </g>
  </g>
  <g id="Layer_4">
    <g>
      <polygon class="st0" points="30 16 30 15 29 15 29 14 28 14 28 13 27 13 27 12 26 12 26 11 25 11 25 10 24 10 24 9 23 9 23 8 22 8 22 7 21 7 21 8 20 8 20 9 19 9 19 10 18 10 18 11 17 11 17 12 16 12 16 13 15 13 15 14 14 14 14 13 15 13 15 12 14 12 14 11 15 11 15 9 14 9 14 10 13 10 13 11 12 11 12 10 13 10 13 9 14 9 14 8 14 7 15 7 15 6 16 6 16 5 17.1 5 17.1 4 18.1 4 18.1 3 17 3 17 2 16 2 16 1 15 1 15 2 14 2 14 3 13.1 3 13.1 4 12.1 4 12.1 5 11 5 11 6 10 6 10 7 9 7 9 8 8 8 8 9 7 9 7 10 6 10 6 11 5 11 5 12 4 12 4 13 3 13 3 14 2 14 2 15 1 15 1 16 2 16 2 17 3 17 3 18 4 18 4 19 5 19 5 20 6 20 6 21 7 21 7 22 8 22 8 23 9 23 9 24 10 24 10 25 11 25 11 26 12 26 12 27 13 27 13 28 14 28 14 29 15 29 15 30 16 30 16 31 17 31 17 30 18 30 18 29 19 29 19 28 20 28 20 27 21 27 21 26 22 26 22 25 21 25 20 25 19 25 19 24 17 24 17 23 16 23 16 22 15 22 15 21 14 21 14 20 13 20 12 20 11 20 11 19 10 19 10 17 11 17 11 16 12 16 12 15 13 15 13 16 12 16 12 18 13 18 13 19 15 19 15 18 15 17 16 17 16 16 17 16 17 15 18 15 18 14 19 14 24 14 24 15 25 15 25 16 26 16 26 17 27 17 27 18 28 18 28 19 29 19 29 18 30 18 30 17 31 17 31 16 30 16"/>
      <rect class="st0" x="18" y="18" width="2" height="1"/>
      <rect class="st0" x="15" y="11" width="1" height="1"/>
      <rect class="st0" x="15" y="8" width="1" height="1"/>
      <polygon class="st0" points="27 18 26 18 26 17 25 17 25 16 24 16 24 15 18 15 18 16 17 16 17 17 16 17 16 18 18 18 18 17 20 17 20 18 21 18 21 19 25 19 25 20 20 20 20 21 18 21 18 20 17 20 17 19 15 19 15 20 15 21 16 21 16 22 17 22 17 23 19 23 19 24 20 24 27 24 27 25 29 25 29 20 28 20 28 19 27 19 27 18"/>
    </g>
  </g>
</svg>