<?xml version="1.0" encoding="UTF-8"?>
<svg id="Layer_4" xmlns="http://www.w3.org/2000/svg" version="1.1" viewBox="0 0 32 32">
  <!-- Generator: Adobe Illustrator 29.4.0, SVG Export Plug-In . SVG Version: 2.1.0 Build 152)  -->
  <defs>
    <style>
      .st0 {
        fill: #fff;
      }
    </style>
  </defs>
  <rect class="st0" x="1.5" y="4" width="28" height="27"/>
  <rect x=".5" y="3" width="1" height="28"/>
  <rect x="30.5" y="5" width="1" height="26"/>
  <rect x="29.5" y="3" width="1" height="27"/>
  <rect x="1.5" y="3" width="28" height="1"/>
  <rect x="1.5" y="31" width="29" height="1"/>
  <rect x="2.5" y="5" width="4" height="1"/>
  <rect x="2.5" y="7" width="4" height="2"/>
  <rect x="24.5" y="5" width="4" height="1"/>
  <rect x="24.5" y="7" width="4" height="2"/>
  <rect x="9.5" y="5" width="1" height="1"/>
  <rect x="8.5" y="6" width="1" height="1"/>
  <rect x="7.5" y="7" width="1" height="1"/>
  <rect x="9.5" y="7" width="1" height="1"/>
  <g>
    <rect x="11.5" y="6" width="2" height="2"/>
    <rect x="11.5" y="8" width="1" height="1"/>
  </g>
  <rect x="14.5" y="6" width="3" height="1"/>
  <rect x="16.5" y="7" width="1" height="1"/>
  <rect x="14.5" y="7" width="1" height="1"/>
  <rect x="18.5" y="6" width="2" height="2"/>
  <g>
    <rect x="21.5" y="6" width="2" height="2"/>
    <rect x="21.5" y="8" width="1" height="1"/>
  </g>
  <rect x="1.5" y="10" width="28" height="1"/>
  <rect x="1.5" y="17" width="28" height="1"/>
  <rect x="3.5" y="12" width="3" height="1"/>
  <rect x="3.5" y="13" width="1" height="1"/>
  <rect x="3.5" y="15" width="1" height="1"/>
  <rect x="5.5" y="15" width="1" height="1"/>
  <rect x="9.5" y="13" width="1" height="1"/>
  <rect x="8.5" y="14" width="1" height="1"/>
  <rect x="7.5" y="15" width="1" height="1"/>
  <rect x="10.5" y="12" width="1" height="1"/>
  <rect x="7.5" y="12" width="1" height="1"/>
  <rect x="10.5" y="15" width="1" height="1"/>
  <rect x="12.5" y="12" width="4" height="1"/>
  <rect x="13.5" y="14" width="1" height="2"/>
  <rect x="18.5" y="12" width="2" height="1"/>
  <rect x="17.5" y="13" width="1" height="1"/>
  <rect x="20.5" y="13" width="1" height="1"/>
  <rect x="19.5" y="14" width="1" height="1"/>
  <rect x="20.5" y="15" width="1" height="1"/>
  <rect x="17.5" y="15" width="1" height="1"/>
  <rect x="22.5" y="13" width="1" height="3"/>
  <rect x="23.5" y="12" width="2" height="1"/>
  <rect x="25.5" y="13" width="1" height="3"/>
  <rect x="24.5" y="14" width="1" height="1"/>
  <rect x="27.5" y="12" width="1" height="2"/>
  <rect x="27.5" y="15" width="1" height="1"/>
  <rect x="2.5" y="19" width="6" height="2"/>
  <rect x="2.5" y="22" width="6" height="1"/>
  <rect x="2.5" y="24" width="6" height="1"/>
  <rect x="2.5" y="26" width="6" height="1"/>
  <rect x="2.5" y="28" width="6" height="1"/>
  <rect x="22.5" y="19" width="6" height="2"/>
  <rect x="22.5" y="22" width="6" height="1"/>
  <rect x="22.5" y="24" width="6" height="1"/>
  <rect x="22.5" y="26" width="6" height="1"/>
  <rect x="22.5" y="28" width="6" height="1"/>
  <rect x="10.5" y="19" width="10" height="1"/>
  <rect x="20.5" y="20" width="1" height="7"/>
  <rect x="9.5" y="20" width="1" height="7"/>
  <rect x="10.5" y="21" width="10" height="1"/>
  <rect x="11.5" y="20" width="1" height="1"/>
  <rect x="10.5" y="27" width="10" height="1"/>
  <rect x="11.5" y="29" width="8" height="1"/>
</svg>