<?xml version="1.0" encoding="UTF-8"?>
<svg id="Layer_2" xmlns="http://www.w3.org/2000/svg" version="1.1" viewBox="0 0 23 21">
  <!-- Generator: Adobe Illustrator 29.4.0, SVG Export Plug-In . SVG Version: 2.1.0 Build 152)  -->
  <defs>
    <style>
      .st0 {
        fill: #fff;
      }
    </style>
  </defs>
  <polygon class="st0" points="19 9 19 8 18 8 18 7 17 7 17 6 16 6 16 5 15 5 15 4 14 4 14 3 13 3 13 2 12 2 12 3 12 4 12 5 1 5 1 14 12 14 12 15 12 16 12 17 13 17 13 16 14 16 14 15 15 15 15 14 16 14 16 13 17 13 17 12 18 12 18 11 19 11 19 10 20 10 20 9 19 9"/>
  <g>
    <rect x="11" y="18" width="1" height="1" transform="translate(23 37) rotate(-180)"/>
    <rect x="11" y="0" width="1" height="1" transform="translate(23 1) rotate(-180)"/>
    <rect x="12" y="1" width="1" height="1" transform="translate(25 3) rotate(-180)"/>
    <rect x="13" y="2" width="1" height="1" transform="translate(27 5) rotate(-180)"/>
    <rect x="14" y="3" width="1" height="1" transform="translate(29 7) rotate(-180)"/>
    <rect x="15" y="4" width="1" height="1" transform="translate(31 9) rotate(-180)"/>
    <rect x="16" y="5" width="1" height="1" transform="translate(33 11) rotate(-180)"/>
    <rect x="17" y="6" width="1" height="1" transform="translate(35 13) rotate(-180)"/>
    <rect x="18" y="7" width="1" height="1" transform="translate(37 15) rotate(-180)"/>
    <rect x="19" y="8" width="1" height="1" transform="translate(39 17) rotate(-180)"/>
    <rect x="21" y="10" width="1" height="1" transform="translate(43 21) rotate(-180)"/>
    <rect x="20" y="9" width="1" height="1"/>
    <rect x="19" y="10" width="1" height="1"/>
    <rect x="18" y="11" width="1" height="1"/>
    <rect x="17" y="12" width="1" height="1"/>
    <rect x="16" y="13" width="1" height="1"/>
    <rect x="15" y="14" width="1" height="1"/>
    <rect x="14" y="15" width="1" height="1"/>
    <rect x="13" y="16" width="1" height="1"/>
    <rect x="12" y="17" width="1" height="1"/>
    <rect x="1" y="14" width="1" height="1"/>
    <rect x="20" y="11" width="1" height="1"/>
    <rect x="19" y="12" width="1" height="1"/>
    <rect x="18" y="13" width="1" height="1"/>
    <rect x="17" y="14" width="1" height="1"/>
    <rect x="16" y="15" width="1" height="1"/>
    <rect x="21" y="12" width="1" height="1"/>
    <rect x="20" y="13" width="1" height="1"/>
    <rect x="19" y="14" width="1" height="1"/>
    <rect x="18" y="15" width="1" height="1"/>
    <rect x="17" y="16" width="1" height="1"/>
    <rect x="15" y="16" width="1" height="1"/>
    <rect x="14" y="17" width="1" height="1"/>
    <rect x="13" y="18" width="1" height="1"/>
    <rect x="16" y="17" width="1" height="1"/>
    <rect x="15" y="18" width="1" height="1"/>
    <rect x="14" y="19" width="1" height="1"/>
    <rect x="12" y="19" width="1" height="1"/>
    <rect x="13" y="20" width="1" height="1"/>
    <rect x="7" y="14" width="1" height="1"/>
    <rect x="9" y="14" width="1" height="1"/>
    <rect x="11" y="14" width="1" height="1"/>
    <rect x="2" y="13" width="1" height="1"/>
    <rect x="3" y="14" width="1" height="1"/>
    <rect x="5" y="14" width="1" height="1"/>
    <rect x="6" y="13" width="1" height="1"/>
    <rect x="8" y="13" width="1" height="1"/>
    <rect x="10" y="13" width="1" height="1"/>
    <rect x="4" y="13" width="1" height="1"/>
    <rect x="0" y="9" width="1" height="1"/>
    <rect y="11" width="1" height="1"/>
    <rect x="0" y="13" width="1" height="1"/>
    <rect x="0" y="5" width="1" height="1"/>
    <rect x="0" y="7" width="1" height="1"/>
    <rect x="1" y="4" width="1" height="1"/>
    <rect x="7" y="4" width="1" height="1"/>
    <rect x="9" y="4" width="1" height="1"/>
    <rect x="11" y="4" width="1" height="1"/>
    <rect x="3" y="4" width="1" height="1"/>
    <rect x="5" y="4" width="1" height="1"/>
    <rect x="11" y="2" width="1" height="1"/>
    <rect x="10" y="15" width="1" height="1"/>
    <rect x="10" y="17" width="1" height="1"/>
  </g>
</svg>