<?xml version="1.0" encoding="UTF-8"?>
<svg id="Layer_2" xmlns="http://www.w3.org/2000/svg" version="1.1" viewBox="0 0 23 21">
  <!-- Generator: Adobe Illustrator 29.4.0, SVG Export Plug-In . SVG Version: 2.1.0 Build 152)  -->
  <defs>
    <style>
      .st0 {
        fill: #fff;
      }
    </style>
  </defs>
  <polygon class="st0" points="19 9 19 8 18 8 18 7 17 7 17 6 16 6 16 5 15 5 15 4 14 4 14 3 13 3 13 2 12 2 12 3 12 4 12 5 1 5 1 14 12 14 12 15 12 16 12 17 13 17 13 16 14 16 14 15 15 15 15 14 16 14 16 13 17 13 17 12 18 12 18 11 19 11 19 10 20 10 20 9 19 9"/>
  <g>
    <polygon points="12 1 12 0 11 0 11 5 12 5 12 2 13 2 13 1 12 1"/>
    <rect x="13" y="2" width="1" height="1"/>
    <rect x="14" y="3" width="1" height="1"/>
    <rect x="15" y="4" width="1" height="1"/>
    <rect x="16" y="5" width="1" height="1"/>
    <rect x="17" y="6" width="1" height="1"/>
    <rect x="18" y="7" width="1" height="1"/>
    <rect x="19" y="8" width="1" height="1"/>
    <polygon points="21 10 21 9 20 9 20 10 19 10 19 11 18 11 18 12 17 12 17 13 16 13 16 14 15 14 15 15 14 15 14 16 13 16 13 17 12 17 12 14 2 14 1 14 1 5 11 5 11 4 1 4 1 4 0 4 0 15 1 15 2 15 2 17 11 17 11 19 12 19 12 21 13 21 13 20 14 20 14 19 15 19 15 18 16 18 16 17 17 17 17 16 18 16 18 15 19 15 19 14 20 14 20 13 21 13 21 12 22 12 22 10 21 10"/>
  </g>
</svg>