<?xml version="1.0" encoding="UTF-8"?>
<svg id="Icon_Layer" xmlns="http://www.w3.org/2000/svg" width="32" height="32" version="1.1" viewBox="0 0 32 32">
  <!-- Generator: Adobe Illustrator 29.4.0, SVG Export Plug-In . SVG Version: 2.1.0 Build 152)  -->
  <defs>
    <style>
      .st0 {
        fill: #fff;
      }
    </style>
  </defs>
  <g>
    <polygon class="st0" points="4 25 5 25 5 26 6 26 6 23 5 23 3 23 3 24 4 24 4 25"/>
    <polygon class="st0" points="7 27 29 27 29 22 29 5 29 3 29 2 26 2 26 1 25 1 25 2 24 2 24 1 23 1 23 2 22 2 22 3 22 4 23 4 23 3 24 3 24 5 22 5 22 4 21 4 21 3 21 2 20 2 20 1 19 1 19 2 18 2 18 3 18 4 19 4 19 3 20 3 20 4 20 5 18 5 18 4 17 4 17 3 17 2 16 2 16 1 15 1 15 2 14 2 14 3 14 4 15 4 15 3 16 3 16 4 16 5 14 5 14 4 13 4 13 3 13 2 12 2 12 1 11 1 11 2 10 2 10 3 10 4 11 4 11 3 12 3 12 4 12 5 10 5 10 4 9 4 9 3 9 2 8 2 8 1 7 1 7 2 6 2 6 3 6 4 7 4 7 3 8 3 8 4 8 5 6 5 6 4 5 4 5 2 4 2 4 1 3 1 3 2 2 2 2 5 2 22 7 22 7 27"/>
    <rect class="st0" x="2" y="30" width="27" height="1"/>
    <polygon class="st0" points="29 28 6 28 6 27 5 27 5 26 4 26 4 25 3 25 3 24 2 24 2 25 2 26 2 27 2 28 2 29 29 29 29 28"/>
    <rect class="st0" x="6" width="1" height="1"/>
    <rect class="st0" x="10" width="1" height="1"/>
    <rect class="st0" x="14" width="1" height="1"/>
    <rect class="st0" x="18" width="1" height="1"/>
    <rect class="st0" x="22" width="1" height="1"/>
    <rect class="st0" x="5" y="1" width="1" height="1"/>
    <rect class="st0" x="9" y="1" width="1" height="1"/>
    <rect class="st0" x="13" y="1" width="1" height="1"/>
    <rect class="st0" x="17" y="1" width="1" height="1"/>
    <rect class="st0" x="21" y="1" width="1" height="1"/>
  </g>
  <g>
    <rect x="3" y="24" width="1" height="1"/>
    <polygon points="24 2 25 2 25 1 26 1 26 0 23 0 23 1 24 1 24 2"/>
    <path d="M29,1h-3v1h3v25H7v-5H2V2h1v-1H1v31h29V1h-1ZM2,31v-7h1v-1h3v3h-1v1h1v1h23v1H2v1h27v1H2Z"/>
    <rect x="4" y="25" width="1" height="1"/>
    <polygon points="12 2 13 2 13 1 14 1 14 0 11 0 11 1 12 1 12 2"/>
    <polygon points="16 2 17 2 17 1 18 1 18 0 15 0 15 1 16 1 16 2"/>
    <polygon points="20 2 21 2 21 1 22 1 22 0 19 0 19 1 20 1 20 2"/>
    <rect x="22" y="1" width="1" height="1"/>
    <polygon points="4 2 5 2 5 1 6 1 6 0 3 0 3 1 4 1 4 2"/>
    <rect x="6" y="1" width="1" height="1"/>
    <polygon points="8 2 9 2 9 1 10 1 10 0 7 0 7 1 8 1 8 2"/>
    <rect x="10" y="1" width="1" height="1"/>
    <rect x="5" y="2" width="1" height="2"/>
    <rect x="9" y="2" width="1" height="2"/>
    <polygon points="13 2 13 4 14 4 14 5 15 5 15 4 14 4 14 2 15 2 15 1 14 1 14 2 13 2"/>
    <polygon points="17 2 17 4 18 4 18 5 19 5 19 4 18 4 18 2 19 2 19 1 18 1 18 2 17 2"/>
    <rect x="21" y="2" width="1" height="2"/>
    <rect x="15" y="3" width="1" height="2"/>
    <rect x="19" y="3" width="1" height="2"/>
    <polygon points="23 5 24 5 24 3 23 3 23 4 22 4 22 5 23 5"/>
    <polygon points="7 5 8 5 8 3 7 3 7 4 6 4 6 5 7 5"/>
    <polygon points="11 5 12 5 12 3 11 3 11 4 10 4 10 5 11 5"/>
  </g>
</svg>