<?xml version="1.0" encoding="utf-8"?>
<!-- Generator: Adobe Illustrator 24.1.2, SVG Export Plug-In . SVG Version: 6.00 Build 0)  -->
<svg version="1.1" xmlns="http://www.w3.org/2000/svg" xmlns:xlink="http://www.w3.org/1999/xlink" x="0px" y="0px"
	 viewBox="0 0 27 19" style="enable-background:new 0 0 27 19;" xml:space="preserve">
<style type="text/css">
	.st0{fill:#FFFFFF;}
</style>
<g id="Layer_1">
	<rect width="27" height="19"/>
	<g>
		<g>
			<rect x="12" y="11.5" class="st0" width="3" height="1"/>
		</g>
		<g>
			<path class="st0" d="M15,9.5v-1h1v-1v-1v-1h-1v-1h-3v1h-1v1v1v1h1v1v1h3V9.5z M12,6.5h1v1h-1V6.5z M14,9.5h-1v-1h1V9.5z M14,6.5
				h1v1h-1V6.5z"/>
		</g>
		<g>
			<polygon class="st0" points="11,10.5 11,9.5 10,9.5 10,10.5 9,10.5 9,11.5 12,11.5 12,10.5 			"/>
		</g>
		<g>
			<polygon class="st0" points="18,11.5 18,10.5 17,10.5 17,9.5 16,9.5 16,10.5 15,10.5 15,11.5 			"/>
		</g>
		<g>
			<polygon class="st0" points="9,13.5 10,13.5 10,14.5 11,14.5 11,13.5 12,13.5 12,12.5 9,12.5 			"/>
		</g>
		<g>
			<polygon class="st0" points="16,13.5 16,14.5 17,14.5 17,13.5 18,13.5 18,12.5 15,12.5 15,13.5 			"/>
		</g>
	</g>
</g>
<g id="Layer_2">
</g>
</svg>
