<?xml version="1.0" encoding="utf-8"?>
<!-- Generator: Adobe Illustrator 24.1.2, SVG Export Plug-In . SVG Version: 6.00 Build 0)  -->
<svg version="1.1" id="Layer_2" xmlns="http://www.w3.org/2000/svg" xmlns:xlink="http://www.w3.org/1999/xlink" x="0px" y="0px"
	 viewBox="0 0 9 10" style="enable-background:new 0 0 9 10;" xml:space="preserve">
<g>
	<rect x="3.1" y="0.1" width="2.8" height="0.8"/>
	<path d="M5.8,0.2v0.5H3.2V0.2H5.8 M6,0H3v1h3V0L6,0z"/>
</g>
<g>
	<rect x="3.1" y="5.1" width="2.8" height="0.8"/>
	<path d="M5.8,5.2v0.5H3.2V5.2H5.8 M6,5H3v1h3V5L6,5z"/>
</g>
<g>
	<rect x="3.1" y="7.1" width="2.8" height="0.8"/>
	<path d="M5.8,7.2v0.5H3.2V7.2H5.8 M6,7H3v1h3V7L6,7z"/>
</g>
<g>
	<rect x="0.1" y="6.1" width="2.8" height="0.8"/>
	<path d="M2.8,6.2v0.5H0.2V6.2H2.8 M3,6H0v1h3V6L3,6z"/>
</g>
<g>
	<rect x="6.1" y="6.1" width="2.8" height="0.8"/>
	<path d="M8.8,6.2v0.5H6.2V6.2H8.8 M9,6H6v1h3V6L9,6z"/>
</g>
<g>
	<rect x="0.1" y="8.1" width="2.8" height="0.8"/>
	<path d="M2.8,8.2v0.5H0.2V8.2H2.8 M3,8H0v1h3V8L3,8z"/>
</g>
<g>
	<rect x="6.1" y="8.1" width="2.8" height="0.8"/>
	<path d="M8.8,8.2v0.5H6.2V8.2H8.8 M9,8H6v1h3V8L9,8z"/>
</g>
<g>
	<rect x="2.1" y="1.1" width="4.8" height="0.8"/>
	<path d="M6.8,1.2v0.5H2.2V1.2H6.8 M7,1H2v1h5V1L7,1z"/>
</g>
<g>
	<rect x="2.1" y="3.1" width="4.8" height="0.8"/>
	<path d="M6.8,3.2v0.5H2.2V3.2H6.8 M7,3H2v1h5V3L7,3z"/>
</g>
<g>
	<rect x="2.1" y="2.1" width="0.8" height="0.8"/>
	<path d="M2.8,2.2v0.5H2.2V2.2H2.8 M3,2H2v1h1V2L3,2z"/>
</g>
<g>
	<rect x="4.1" y="2.1" width="0.8" height="0.8"/>
	<path d="M4.8,2.2v0.5H4.2V2.2H4.8 M5,2H4v1h1V2L5,2z"/>
</g>
<g>
	<rect x="6.1" y="2.1" width="0.8" height="0.8"/>
	<path d="M6.8,2.2v0.5H6.2V2.2H6.8 M7,2H6v1h1V2L7,2z"/>
</g>
<g>
	<rect x="3.1" y="4.1" width="0.8" height="0.8"/>
	<path d="M3.8,4.2v0.5H3.2V4.2H3.8 M4,4H3v1h1V4L4,4z"/>
</g>
<g>
	<rect x="5.1" y="4.1" width="0.8" height="0.8"/>
	<path d="M5.8,4.2v0.5H5.2V4.2H5.8 M6,4H5v1h1V4L6,4z"/>
</g>
<g>
	<rect x="1.1" y="5.1" width="0.8" height="0.8"/>
	<path d="M1.8,5.2v0.5H1.2V5.2H1.8 M2,5H1v1h1V5L2,5z"/>
</g>
<g>
	<rect x="7.1" y="5.1" width="0.8" height="0.8"/>
	<path d="M7.8,5.2v0.5H7.2V5.2H7.8 M8,5H7v1h1V5L8,5z"/>
</g>
<g>
	<rect x="1.1" y="9.1" width="0.8" height="0.8"/>
	<path d="M1.8,9.2v0.5H1.2V9.2H1.8 M2,9H1v1h1V9L2,9z"/>
</g>
<g>
	<rect x="7.1" y="9.1" width="0.8" height="0.8"/>
	<path d="M7.8,9.2v0.5H7.2V9.2H7.8 M8,9H7v1h1V9L8,9z"/>
</g>
</svg>
