<?xml version="1.0" encoding="UTF-8"?>
<svg id="Icon_Layer" xmlns="http://www.w3.org/2000/svg" version="1.1" viewBox="0 0 23 21">
  <!-- Generator: Adobe Illustrator 29.4.0, SVG Export Plug-In . SVG Version: 2.1.0 Build 152)  -->
  <defs>
    <style>
      .st0 {
        fill: #fff;
      }
    </style>
  </defs>
  <polygon class="st0" points="10 5 9 5 9 4 9 3 9 2 8 2 8 3 7 3 7 4 6 4 6 5 5 5 5 6 4 6 4 7 3 7 3 8 2 8 2 9 1 9 1 10 2 10 2 11 3 11 3 12 4 12 4 13 5 13 5 14 6 14 6 15 7 15 7 16 8 16 8 17 9 17 9 16 9 15 9 14 20 14 20 13 20 5 10 5"/>
  <rect x="20" y="5" width="1" height="1"/>
  <rect x="8" y="1" width="1" height="1"/>
  <rect x="7" y="2" width="1" height="1"/>
  <rect x="6" y="3" width="1" height="1"/>
  <rect x="5" y="4" width="1" height="1"/>
  <rect x="4" y="5" width="1" height="1"/>
  <rect x="3" y="6" width="1" height="1"/>
  <rect x="2" y="7" width="1" height="1"/>
  <rect x="1" y="8" width="1" height="1"/>
  <rect y="9" width="1" height="1"/>
  <rect x="1" y="10" width="1" height="1" transform="translate(3 21) rotate(-180)"/>
  <rect x="2" y="11" width="1" height="1" transform="translate(5 23) rotate(-180)"/>
  <rect x="3" y="12" width="1" height="1" transform="translate(7 25) rotate(-180)"/>
  <rect x="4" y="13" width="1" height="1" transform="translate(9 27) rotate(-180)"/>
  <rect x="5" y="14" width="1" height="1" transform="translate(11 29) rotate(-180)"/>
  <rect x="6" y="15" width="1" height="1" transform="translate(13 31) rotate(-180)"/>
  <rect x="7" y="16" width="1" height="1" transform="translate(15 33) rotate(-180)"/>
  <rect x="11" y="2" width="1" height="1"/>
  <rect x="11" y="14" width="1" height="1"/>
  <rect x="8" y="17" width="1" height="1" transform="translate(17 35) rotate(-180)"/>
  <rect x="9" y="18" width="1" height="1" transform="translate(19 37) rotate(-180)"/>
  <rect x="10" y="19" width="1" height="1" transform="translate(21 39) rotate(-180)"/>
  <rect x="11" y="20" width="1" height="1" transform="translate(23 41) rotate(-180)"/>
  <rect x="22" y="15" width="1" height="1"/>
  <rect x="16" y="15" width="1" height="1" transform="translate(33 31) rotate(-180)"/>
  <rect x="14" y="15" width="1" height="1" transform="translate(29 31) rotate(-180)"/>
  <rect x="12" y="15" width="1" height="1" transform="translate(25 31) rotate(-180)"/>
  <rect x="21" y="14" width="1" height="1" transform="translate(43 29) rotate(-180)"/>
  <rect x="20" y="15" width="1" height="1" transform="translate(41 31) rotate(-180)"/>
  <rect x="18" y="15" width="1" height="1" transform="translate(37 31) rotate(-180)"/>
  <rect x="17" y="14" width="1" height="1" transform="translate(35 29) rotate(-180)"/>
  <rect x="15" y="14" width="1" height="1" transform="translate(31 29) rotate(-180)"/>
  <rect x="13" y="14" width="1" height="1" transform="translate(27 29) rotate(-180)"/>
  <rect x="19" y="14" width="1" height="1" transform="translate(39 29) rotate(-180)"/>
  <rect x="21" y="8" width="1" height="1" transform="translate(43 17) rotate(-180)"/>
  <rect x="21" y="10" width="1" height="1" transform="translate(43 21) rotate(-180)"/>
  <rect x="21" y="12" width="1" height="1" transform="translate(43 25) rotate(-180)"/>
  <rect x="21" y="4" width="1" height="1" transform="translate(43 9) rotate(-180)"/>
  <rect x="21" y="6" width="1" height="1" transform="translate(43 13) rotate(-180)"/>
  <rect x="15" y="4" width="1" height="1" transform="translate(31 9) rotate(-180)"/>
  <rect x="13" y="4" width="1" height="1" transform="translate(27 9) rotate(-180)"/>
  <rect x="11" y="18" width="1" height="1" transform="translate(23 37) rotate(-180)"/>
  <rect x="19" y="4" width="1" height="1" transform="translate(39 9) rotate(-180)"/>
  <rect x="17" y="4" width="1" height="1" transform="translate(35 9) rotate(-180)"/>
  <rect x="11" y="16" width="1" height="1" transform="translate(23 33) rotate(-180)"/>
  <rect x="9" y="0" width="1" height="1"/>
  <rect x="9" y="4" width="1" height="1" transform="translate(19 9) rotate(-180)"/>
  <rect x="9" y="2" width="1" height="1" transform="translate(19 5) rotate(-180)"/>
  <rect x="10.1" y="3" width="1" height="1" transform="translate(21.1 7) rotate(-180)"/>
  <rect x="10.1" y="1" width="1" height="1" transform="translate(21.1 3) rotate(-180)"/>
  <rect x="11" y="4" width="1" height="1" transform="translate(23 9) rotate(-180)"/>
  <rect x="20" y="9" width="1" height="1" transform="translate(41 19) rotate(-180)"/>
  <rect x="20" y="11" width="1" height="1" transform="translate(41 23) rotate(-180)"/>
  <rect x="20" y="13" width="1" height="1" transform="translate(41 27) rotate(-180)"/>
  <rect x="20" y="7" width="1" height="1" transform="translate(41 15) rotate(-180)"/>
  <rect x="22" y="9" width="1" height="1" transform="translate(45 19) rotate(-180)"/>
  <rect x="22" y="11" width="1" height="1" transform="translate(45 23) rotate(-180)"/>
  <rect x="22" y="13" width="1" height="1" transform="translate(45 27) rotate(-180)"/>
  <rect x="22" y="5" width="1" height="1" transform="translate(45 11) rotate(-180)"/>
  <rect x="22" y="7" width="1" height="1" transform="translate(45 15) rotate(-180)"/>
  <rect x="21" y="16" width="1" height="1" transform="translate(43 33) rotate(-180)"/>
  <rect x="17" y="16" width="1" height="1" transform="translate(35 33) rotate(-180)"/>
  <rect x="15" y="16" width="1" height="1" transform="translate(31 33) rotate(-180)"/>
  <rect x="13" y="16" width="1" height="1" transform="translate(27 33) rotate(-180)"/>
  <rect x="19" y="16" width="1" height="1" transform="translate(39 33) rotate(-180)"/>
  <rect x="10" y="15" width="1" height="1"/>
  <rect x="10" y="17" width="1" height="1" transform="translate(21 35) rotate(-180)"/>
  <rect x="9" y="14" width="1" height="1"/>
  <rect x="9" y="16" width="1" height="1" transform="translate(19 33) rotate(-180)"/>
</svg>