<?xml version="1.0" encoding="UTF-8"?>
<svg id="Layer_4" xmlns="http://www.w3.org/2000/svg" width="32" height="32" version="1.1" viewBox="0 0 32 32">
  <!-- Generator: Adobe Illustrator 29.4.0, SVG Export Plug-In . SVG Version: 2.1.0 Build 152)  -->
  <defs>
    <style>
      .st0 {
        fill: #fff;
      }
    </style>
  </defs>
  <rect class="st0" y="0" width="32" height="32"/>
  <rect x="26" y="6" width="1" height="2"/>
  <polygon points="28 3 27 3 27 2 26 2 26 3 25 3 25 5 25 7 26 7 26 5 27 5 27 7 28 7 28 5 28 3"/>
  <rect x="13" y="18" width="5" height="1"/>
  <polygon points="27 27 25 27 25 28 26 28 26 29 27 29 27 28 28 28 28 27 28 26 27 26 27 27"/>
  <rect x="24" y="26" width="1" height="1"/>
  <rect x="23" y="25" width="1" height="1"/>
  <rect x="22" y="24" width="1" height="1"/>
  <rect x="21" y="29" width="6" height="1"/>
  <polygon points="19.1 20 19.1 19 18.1 19 18.1 20 19 20 19 21 19 23 20 23 20 21 21 21 21 20 19.1 20"/>
  <rect x="20" y="23" width="2" height="1"/>
  <rect x="8" y="19" width="2" height="2"/>
  <rect x="11" y="21" width="1" height="1"/>
  <polygon points="14 22 15 22 15 21 15 20 12 20 12 21 14 21 14 22"/>
  <polygon points="13 24 13 25 15 25 15 24 13 24 13 23 14 23 14 22 12 22 12 23 10 23 10 24 13 24"/>
  <rect x="2" y="22" width="1" height="2"/>
  <rect x="18" y="25" width="4" height="1"/>
  <polygon points="9 28 11 28 11 29 13 29 14 29 14 28 15 28 15 27 18 27 18 26 15 26 15 25 14 25 14 27 13 27 13 28 12 28 12 27 7 27 7 26 4 26 4 24 3 24 3 27 4 27 6 27 6 28 8 28 8 29 9 29 9 28"/>
  <rect x="18" y="17" width="1" height="1"/>
  <rect x="23" y="3" width="1" height="9"/>
  <rect x="12" y="17" width="1" height="1"/>
  <rect x="5" y="17" width="4" height="1"/>
  <rect x="8" y="16" width="16" height="1"/>
  <rect x="25" y="8" width="1" height="11"/>
  <rect x="24" y="7" width="1" height="6"/>
  <rect x="28" y="7" width="1" height="6"/>
  <rect x="27" y="8" width="1" height="11"/>
  <rect x="26" y="12" width="1" height="1"/>
  <rect x="26" y="14" width="1" height="5"/>
  <rect x="10" y="7" width="1" height="8"/>
  <rect x="5" y="7" width="5" height="1"/>
  <rect x="1" y="19" width="3" height="1"/>
  <rect x="3" y="18" width="2" height="1"/>
  <rect x="29" y="19" width="2" height="1"/>
  <rect x="28" y="18" width="1" height="2"/>
  <rect x="24" y="17" width="1" height="2"/>
  <rect x="21" y="21" width="2" height="1"/>
  <rect x="19" y="9" width="1" height="1"/>
  <rect x="20" y="8" width="1" height="1"/>
  <rect x="11" y="13" width="1" height="3"/>
  <rect x="13" y="12" width="1" height="1"/>
  <rect x="13" y="10" width="1" height="1"/>
  <rect x="12" y="11" width="3" height="1"/>
  <rect x="9" y="10" width="1" height="4"/>
  <rect x="6" y="9" width="4" height="1"/>
  <rect x="5" y="8" width="1" height="2"/>
  <rect x="12" y="14" width="4" height="2"/>
  <rect x="15" y="13" width="1" height="1"/>
  <rect x="16" y="8" width="1" height="7"/>
  <rect x="17" y="9" width="1" height="5"/>
  <rect x="18" y="12" width="1" height="3"/>
  <rect x="19" y="13" width="1" height="3"/>
  <rect x="20" y="14" width="1" height="2"/>
  <rect x="11" y="6" width="5" height="3"/>
  <rect x="11" y="9" width="1" height="1"/>
  <rect x="15" y="9" width="1" height="1"/>
  <rect x="16" y="6" width="3" height="1"/>
  <rect x="17" y="7" width="3" height="1"/>
  <rect x="18" y="8" width="2" height="1"/>
  <rect x="20" y="30" width="1" height="1"/>
  <rect x="27" y="30" width="1" height="1"/>
  <rect x="23" y="20" width="4" height="1"/>
  <rect x="27" y="21" width="1" height="1"/>
  <rect x="28" y="21" width="1" height="5"/>
  <rect x="29" y="24" width="2" height="1"/>
  <rect x="3" y="20" width="1" height="1"/>
  <rect x="3" y="21" width="5" height="1"/>
  <rect x="8" y="22" width="2" height="1"/>
  <rect x="7" y="29" width="1" height="1"/>
  <rect x="6" y="30" width="1" height="1"/>
  <rect x="1" y="29" width="5" height="1"/>
  <rect width="32" height="1"/>
  <rect y="1" width="1" height="30"/>
  <rect x="31" y="1" width="1" height="30"/>
  <rect y="31" width="32" height="1"/>
</svg>