<?xml version="1.0" encoding="UTF-8"?>
<svg id="icon_Layer" xmlns="http://www.w3.org/2000/svg" version="1.1" viewBox="0 0 32 27">
  <!-- Generator: Adobe Illustrator 29.4.0, SVG Export Plug-In . SVG Version: 2.1.0 Build 152)  -->
  <defs>
    <style>
      .st0 {
        fill: #fff;
      }
    </style>
  </defs>
  <polygon class="st0" points="29 3 29 1 2 1 2 3 1 3 1 24 3 24 3 26 31 26 31 3 29 3"/>
  <g>
    <rect x="1" y="8" width="1" height="1"/>
    <polygon points="5 8 5 7 3 7 3 8 4 8 4 9 5 9 5 8"/>
    <rect x="2" y="5" width="2" height="1"/>
    <polygon points="1 5 0 5 0 8 1 8 1 7 2 7 2 6 1 6 1 5"/>
    <polygon points="5 4 5 3 3 3 3 4 4 4 4 5 5 5 5 4"/>
    <rect x="1" y="4" width="1" height="1"/>
    <polygon points="1 13 0 13 0 16 1 16 1 15 2 15 2 14 1 14 1 13"/>
    <rect x="1" y="12" width="1" height="1"/>
    <polygon points="5 12 5 11 3 11 3 12 4 12 4 13 5 13 5 12"/>
    <polygon points="1 9 0 9 0 12 1 12 1 11 2 11 2 10 1 10 1 9"/>
    <rect x="2" y="9" width="2" height="1"/>
    <rect x="1" y="16" width="1" height="1"/>
    <rect x="2" y="13" width="2" height="1"/>
    <polygon points="0 20 1 20 1 19 2 19 2 18 4 18 4 17 2 17 2 18 1 18 1 17 0 17 0 20"/>
    <polygon points="5 15 4 15 3 15 3 16 4 16 4 17 5 17 5 15"/>
    <path d="M31,2h-1V0H1v2H0v2h1v-1h1V1h27v18h-5v1h0v4H2v-2h2v-1h-2v1h-1v-1H0v3h1v1h1v2h30V2h-1ZM31,26H3v-1h23v-2h-1v-3h3v1h1v-1h0s1,0,1,0V3h1v23Z"/>
    <rect x="27" y="21" width="1" height="1"/>
    <rect x="26" y="22" width="1" height="1"/>
    <path d="M9,13v8h6v-9h-6v1ZM14,13v7h-4v-7h4Z"/>
    <path d="M22,4h-10v6h6v5h1v-5h3v-2h4v7h1V7h-5v-3ZM21,9h-8v-4h8v4Z"/>
    <rect x="18" y="15" width="9" height="1"/>
    <rect x="1" y="20" width="1" height="1"/>
    <polygon points="5 19 4 19 3 19 3 20 4 20 4 21 5 21 5 19"/>
  </g>
</svg>