<?xml version="1.0" encoding="UTF-8"?>
<svg id="Layer_1" xmlns="http://www.w3.org/2000/svg" version="1.1" viewBox="0 0 11 13">
  <!-- Generator: Adobe Illustrator 29.4.0, SVG Export Plug-In . SVG Version: 2.1.0 Build 152)  -->
  <defs>
    <style>
      .st0 {
        fill: #fff;
      }
    </style>
  </defs>
  <g>
    <rect x="10" y="6" width="1" height="1" transform="translate(4 17) rotate(-90)"/>
    <rect x="9" y="5" width="1" height="1" transform="translate(4 15) rotate(-90)"/>
    <rect x="8" y="4" width="1" height="1" transform="translate(4 13) rotate(-90)"/>
    <rect x="7" y="3" width="1" height="1" transform="translate(4 11) rotate(-90)"/>
    <rect x="6" y="2" width="1" height="1" transform="translate(4 9) rotate(-90)"/>
    <rect x="5" y="1" width="1" height="1" transform="translate(4 7) rotate(-90)"/>
    <rect x="5" y="11" width="1" height="1" transform="translate(-6 17) rotate(-90)"/>
    <rect x="6" y="10" width="1" height="1" transform="translate(-4 17) rotate(-90)"/>
    <rect x="7" y="9" width="1" height="1" transform="translate(-2 17) rotate(-90)"/>
    <rect x="8" y="8" width="1" height="1" transform="translate(0 17) rotate(-90)"/>
    <rect x="9" y="7" width="1" height="1" transform="translate(2 17) rotate(-90)"/>
    <rect x="2" y="8" width="1" height="3" transform="translate(-7 12) rotate(-90)"/>
    <g>
      <rect x="4" y="9" width="1" height="4"/>
      <polygon points="5 4 4 4 1 4 1 10 0 10 0 3 1 3 4 3 4 0 5 0 5 4"/>
    </g>
  </g>
  <polygon class="st0" points="6 3 7 3 7 4 8 4 8 5 9 5 9 6 10 6 10 7 9 7 9 8 8 8 8 9 7 9 7 10 6 10 6 11 5 11 5 9 1 9 1 4 5 4 5 2 6 2 6 3"/>
</svg>