<?xml version="1.0" encoding="UTF-8"?>
<svg id="Layer_1" xmlns="http://www.w3.org/2000/svg" version="1.1" viewBox="0 0 13 11">
  <!-- Generator: Adobe Illustrator 29.4.0, SVG Export Plug-In . SVG Version: 2.1.0 Build 152)  -->
  <defs>
    <style>
      .st0 {
        fill: #fff;
      }
    </style>
  </defs>
  <g>
    <rect x="6" y="10" width="1" height="1"/>
    <rect x="7" y="9" width="1" height="1"/>
    <rect x="8" y="8" width="1" height="1"/>
    <rect x="9" y="7" width="1" height="1"/>
    <rect x="10" y="6" width="1" height="1"/>
    <rect x="11" y="5" width="1" height="1"/>
    <rect x="1" y="5" width="1" height="1"/>
    <rect x="2" y="6" width="1" height="1"/>
    <rect x="3" y="7" width="1" height="1"/>
    <rect x="4" y="8" width="1" height="1"/>
    <rect x="5" y="9" width="1" height="1"/>
    <rect x="3" y="1" width="1" height="3"/>
    <g>
      <rect y="4" width="4" height="1"/>
      <polygon points="9 5 9 4 9 1 3 1 3 0 10 0 10 1 10 4 13 4 13 5 9 5"/>
    </g>
  </g>
  <polygon class="st0" points="10 6 10 7 9 7 9 8 8 8 8 9 7 9 7 10 6 10 6 9 5 9 5 8 4 8 4 7 3 7 3 6 2 6 2 5 4 5 4 1 9 1 9 5 11 5 11 6 10 6"/>
</svg>