<?xml version="1.0" encoding="UTF-8"?>
<svg id="Layer_1" xmlns="http://www.w3.org/2000/svg" version="1.1" viewBox="0 0 13 11">
  <!-- Generator: Adobe Illustrator 29.4.0, SVG Export Plug-In . SVG Version: 2.1.0 Build 152)  -->
  <defs>
    <style>
      .st0 {
        fill: #fff;
      }
    </style>
  </defs>
  <g>
    <rect x="6" width="1" height="1"/>
    <rect x="7" y="1" width="1" height="1"/>
    <rect x="8" y="2" width="1" height="1"/>
    <rect x="9" y="3" width="1" height="1"/>
    <rect x="10" y="4" width="1" height="1"/>
    <rect x="11" y="5" width="1" height="1"/>
    <rect x="1" y="5" width="1" height="1"/>
    <rect x="2" y="4" width="1" height="1"/>
    <rect x="3" y="3" width="1" height="1"/>
    <rect x="4" y="2" width="1" height="1"/>
    <rect x="5" y="1" width="1" height="1"/>
    <rect x="3" y="7" width="1" height="3"/>
    <g>
      <rect y="6" width="4" height="1"/>
      <polygon points="9 6 9 7 9 10 3 10 3 11 10 11 10 10 10 7 13 7 13 6 9 6"/>
    </g>
  </g>
  <polygon class="st0" points="10 5 10 4 9 4 9 3 8 3 8 2 7 2 7 1 6 1 6 2 5 2 5 3 4 3 4 4 3 4 3 5 2 5 2 6 4 6 4 10 9 10 9 6 11 6 11 5 10 5"/>
</svg>