<?xml version="1.0" encoding="utf-8"?>
<!-- Generator: Adobe Illustrator 25.4.1, SVG Export Plug-In . SVG Version: 6.00 Build 0)  -->
<svg version="1.1" id="Layer_2" xmlns="http://www.w3.org/2000/svg" xmlns:xlink="http://www.w3.org/1999/xlink" x="0px" y="0px"
	 viewBox="0 0 20 16" style="enable-background:new 0 0 20 16;" xml:space="preserve">
<style type="text/css">
	.st0{fill:#FFFFFF;}
</style>
<g>
	<rect x="13" y="6" width="1" height="4"/>
	<rect x="12" y="5" width="1" height="1"/>
	<polygon points="8,0 8,1 7,1 7,2 6,2 6,3 5,3 5,4 0,4 0,12 5,12 5,13 6,13 6,14 7,14 7,15 8,15 8,16 9,16 9,0 	"/>
	<rect x="12" y="10" width="1" height="1"/>
	<rect x="16" y="5" width="1" height="6"/>
	<rect x="15" y="4" width="1" height="1"/>
	<rect x="15" y="11" width="1" height="1"/>
	<rect x="17" y="2" width="1" height="1"/>
	<rect x="17" y="13" width="1" height="1"/>
	<rect x="18" y="3" width="1" height="2"/>
	<rect x="18" y="11" width="1" height="2"/>
	<rect x="19" y="5" width="1" height="6"/>
	<rect x="14" y="3" width="1" height="1"/>
	<rect x="14" y="12" width="1" height="1"/>
	<rect x="2" y="5" class="st0" width="4" height="1"/>
	<rect x="7" y="3" class="st0" width="1" height="1"/>
	<rect x="6" y="4" class="st0" width="1" height="1"/>
</g>
</svg>
