<?xml version="1.0" encoding="UTF-8"?>
<svg id="Layer_3" xmlns="http://www.w3.org/2000/svg" version="1.1" viewBox="0 0 32 28">
  <!-- Generator: Adobe Illustrator 29.4.0, SVG Export Plug-In . SVG Version: 2.1.0 Build 152)  -->
  <defs>
    <style>
      .st0 {
        fill: #fff;
      }
    </style>
  </defs>
  <g>
    <rect x="12" width="8" height="1"/>
    <rect x="2" y="6" width="1" height="2"/>
    <rect x="3" y="5" width="1" height="1"/>
    <rect x="27" y="4" width="1" height="1"/>
    <rect x="4" y="4" width="1" height="1"/>
    <rect x="9" y="1" width="3" height="1"/>
    <rect x="20" y="1" width="3" height="1"/>
    <rect x="7" y="2" width="2" height="1"/>
    <rect x="23" y="2" width="2" height="1"/>
    <rect x="25" y="3" width="2" height="1"/>
    <rect x="5" y="3" width="2" height="1"/>
    <polygon points="31 9 31 8 30 8 30 6 29 6 29 5 28 5 28 7 29 7 29 9 30 9 30 14 29 14 29 16 28 16 28 18 27 18 27 19 25 19 25 20 24 20 23 20 23 21 20 21 20 22 12 22 11 22 11 23 9 23 9 24 7 24 7 25 6 25 5 25 5 26 2 26 2 25 1 25 1 26 0 26 0 27 1 27 1 28 6 28 6 27 8 27 8 26 10 26 10 25 12 25 12 24 20 24 21 24 21 23 23 23 24 23 24 22 25 22 26 22 26 21 27 21 28 21 28 20 29 20 29 19 30 19 30 17 31 17 31 15 32 15 32 9 31 9"/>
    <rect x="1" y="8" width="1" height="2"/>
    <rect y="10" width="1" height="3"/>
    <rect x="1" y="13" width="1" height="2"/>
    <rect x="2" y="15" width="1" height="2"/>
    <rect x="4" y="18" width="1" height="4"/>
    <rect x="3" y="17" width="1" height="1"/>
    <rect x="3" y="22" width="1" height="2"/>
    <rect x="2" y="24" width="1" height="1"/>
  </g>
  <polygon class="st0" points="29 9 29 7 28 7 28 5 27 5 27 4 25 4 25 3 23 3 23 2 20 2 20 1 12 1 12 2 9 2 9 3 7 3 7 4 5 4 5 5 4 5 4 6 3 6 3 8 2 8 2 10 1 10 1 13 2 13 2 15 3 15 3 17 4 17 4 18 5 18 5 22 4 22 4 24 3 24 3 25 2 25 2 26 4 26 5 26 5 25 7 25 7 24 9 24 9 23 11 23 11 22 12 22 20 22 20 21 23 21 23 20 25 20 25 19 27 19 27 18 28 18 28 16 29 16 29 14 30 14 30 9 29 9"/>
</svg>