<?xml version="1.0" encoding="utf-8"?>
<!-- Generator: Adobe Illustrator 25.4.1, SVG Export Plug-In . SVG Version: 6.00 Build 0)  -->
<svg version="1.1" id="Layer_2" xmlns="http://www.w3.org/2000/svg" xmlns:xlink="http://www.w3.org/1999/xlink" x="0px" y="0px"
	 viewBox="0 0 8 8" style="enable-background:new 0 0 8 8;" xml:space="preserve">
<path d="M7,3V2H6V1H5V0H3v1H2v1H1v1H0v1v1h2v1h1V5h2v1h1V5h2V4V3H7z M2,4V3h1v1H2z M5,4V3h1v1H5z"/>
<rect x="3" y="6" width="2" height="1"/>
<rect x="6" y="6" width="1" height="1"/>
<rect x="1" y="6" width="1" height="1"/>
<rect y="7" width="1" height="1"/>
<rect x="7" y="7" width="1" height="1"/>
<rect x="2" y="7" width="1" height="1"/>
<rect x="5" y="7" width="1" height="1"/>
</svg>
