<?xml version="1.0" encoding="utf-8"?>
<!-- Generator: Adobe Illustrator 25.4.1, SVG Export Plug-In . SVG Version: 6.00 Build 0)  -->
<svg version="1.1" id="Layer_2" xmlns="http://www.w3.org/2000/svg" xmlns:xlink="http://www.w3.org/1999/xlink" x="0px" y="0px"
	 viewBox="0 0 25 32" style="enable-background:new 0 0 25 32;" xml:space="preserve">
<style type="text/css">
	.st0{fill:#FFFFFF;}
</style>
<rect x="9" width="5" height="1"/>
<rect x="2" y="31" width="19" height="1"/>
<polygon points="15,2 15,1 14,1 14,2 9,2 9,1 8,1 8,2 1,2 1,3 22,3 22,2 "/>
<rect x="2" y="6" class="st0" width="19" height="25"/>
<polygon points="22,3 22,5 1,5 1,3 0,3 0,6 1,6 1,31 2,31 2,6 21,6 21,31 22,31 22,6 23,6 23,3 "/>
<rect x="1" y="3" class="st0" width="21" height="2"/>
<rect x="6" y="8" width="1" height="1"/>
<rect x="5.2" y="9" width="1" height="19"/>
<rect x="6" y="28" width="1" height="1"/>
<rect x="9.8" y="8" width="1" height="1"/>
<rect x="9" y="9" width="1" height="19"/>
<rect x="9.8" y="28" width="1" height="1"/>
<rect x="13.8" y="8" width="1" height="1"/>
<rect x="13" y="9" width="1" height="19"/>
<rect x="13.8" y="28" width="1" height="1"/>
<rect x="17.8" y="8" width="1" height="1"/>
<rect x="17" y="9" width="1" height="19"/>
<rect x="17.8" y="28" width="1" height="1"/>
</svg>
