<?xml version="1.0" encoding="UTF-8"?>
<svg id="Layer_2" xmlns="http://www.w3.org/2000/svg" width="26" height="32" version="1.1" viewBox="0 0 26 32">
  <!-- Generator: Adobe Illustrator 29.4.0, SVG Export Plug-In . SVG Version: 2.1.0 Build 152)  -->
  <defs>
    <style>
      .st0 {
        fill: #fff;
      }
    </style>
  </defs>
  <rect x="10" width="6" height="1"/>
  <rect x="4" y="31" width="18" height="1"/>
  <rect class="st0" x="4" y="5" width="18" height="26"/>
  <rect x="5" y="12" width="1" height="11"/>
  <rect class="st0" x="22" y="8" width="1" height="20"/>
  <rect x="8" y="7" width="1" height="1"/>
  <rect x="7" y="8" width="1" height="2"/>
  <rect x="6" y="10" width="1" height="2"/>
  <rect x="6" y="23" width="1" height="2"/>
  <rect x="7" y="25" width="1" height="3"/>
  <rect x="9" y="12" width="1" height="11"/>
  <rect x="11" y="8" width="1" height="2"/>
  <rect x="10" y="10" width="1" height="2"/>
  <rect x="10" y="23" width="1" height="2"/>
  <rect x="11" y="25" width="1" height="3"/>
  <rect x="8" y="28" width="1" height="1"/>
  <rect x="17" y="12" width="1" height="11" transform="translate(35 35) rotate(-180)"/>
  <rect x="15" y="8" width="1" height="2"/>
  <rect x="16" y="10" width="1" height="2"/>
  <rect x="16" y="23" width="1" height="2"/>
  <rect x="15" y="25" width="1" height="3"/>
  <rect x="21" y="12" width="1" height="11" transform="translate(43 35) rotate(-180)"/>
  <rect x="19" y="8" width="1" height="2"/>
  <rect x="20" y="10" width="1" height="2"/>
  <rect x="20" y="23" width="1" height="2"/>
  <rect x="19" y="25" width="1" height="3"/>
  <rect x="18" y="7" width="1" height="1"/>
  <rect x="3" y="2" width="20" height="1"/>
  <rect x="2" y="4" width="21.9" height="1"/>
  <rect x="22" y="5" width="1" height="3"/>
  <rect x="3" y="5" width="1" height="3"/>
  <rect x="3" y="28" width="1" height="3"/>
  <rect x="22" y="28" width="1" height="3"/>
  <rect x="23" y="25" width="1" height="3"/>
  <rect x="2" y="25" width="1" height="3"/>
  <rect x="25" y="12" width="1" height="11"/>
  <rect x="0" y="12" width="1" height="11"/>
  <rect x="1" y="23" width="1" height="2"/>
  <rect x="24" y="23" width="1" height="2"/>
  <rect x="24" y="10" width="1" height="2"/>
  <rect x="1" y="10" width="1" height="2"/>
  <rect x="23" y="8" width="1" height="2"/>
  <rect x="2" y="8" width="1" height="2"/>
  <rect x="16" y="1" width="1" height="1"/>
  <rect x="9" y="1" width="1" height="1"/>
  <rect x="22.9" y="3" width="1" height="1"/>
  <rect x="2" y="3" width="1" height="1"/>
  <rect class="st0" x="23" y="10" width="1" height="15"/>
  <rect class="st0" x="24" y="12" width="1" height="11"/>
  <rect class="st0" x="1" y="12" width="1" height="11"/>
  <rect class="st0" x="2" y="10" width="1" height="15"/>
  <rect class="st0" x="3" y="8" width="1" height="20"/>
  <rect class="st0" x="10" y="1" width="6" height="1"/>
  <rect class="st0" x="3" y="3" width="20" height="1"/>
</svg>