<?xml version="1.0" encoding="UTF-8"?>
<svg id="Icon_Layer" xmlns="http://www.w3.org/2000/svg" version="1.1" viewBox="0 0 27 25">
  <!-- Generator: Adobe Illustrator 29.4.0, SVG Export Plug-In . SVG Version: 2.1.0 Build 152)  -->
  <defs>
    <style>
      .st0 {
        fill: #fff;
      }
    </style>
  </defs>
  <g>
    <polygon class="st0" points="16 1 16 7 15 7 15 8 10 8 10 7 10 6 10 5 10 4 9 4 9 5 8 5 8 6 7 6 7 7 6 7 6 8 5 8 5 9 4 9 4 10 3 10 3 11 2 11 2 12 1 12 1 13 2 13 2 14 3 14 3 15 4 15 4 16 5 16 5 17 6 17 6 18 7 18 7 19 8 19 8 20 9 20 9 21 10 21 10 17 22 17 22 16 23 16 23 15 24 15 24 1 16 1"/>
    <rect class="st0" x="10" y="3" width="1" height="1"/>
  </g>
  <g>
    <polygon points="10 8 11 8 13 8 15 8 15 7 13 7 13 5 13 4 12 4 12 5 11 5 11 2 10 2 10 3 9 3 9 4 10 4 10 8"/>
    <rect x="8" y="4" width="1" height="1"/>
    <rect x="7" y="5" width="1" height="1"/>
    <rect x="6" y="6" width="1" height="1"/>
    <rect x="5" y="7" width="1" height="1"/>
    <rect x="4" y="8" width="1" height="1"/>
    <rect x="3" y="9" width="1" height="1"/>
    <rect x="2" y="10" width="1" height="1"/>
    <rect x="1" y="11" width="1" height="1"/>
    <rect y="12" width="1" height="1"/>
    <rect x="1" y="13" width="1" height="1"/>
    <rect x="2" y="14" width="1" height="1"/>
    <rect x="3" y="15" width="1" height="1"/>
    <rect x="4" y="16" width="1" height="1"/>
    <rect x="5" y="17" width="1" height="1"/>
    <rect x="6" y="18" width="1" height="1"/>
    <rect x="7" y="19" width="1" height="1"/>
    <rect x="8" y="20" width="1" height="1"/>
    <polygon points="25 2 25 1 25 0 15 0 15 1 15 7 16 7 16 1 24 1 24 15 23 15 23 16 22 16 22 17 13 17 12 17 11 17 10 17 10 21 9 21 9 22 10 22 10 23 11 23 11 24 12 24 12 25 13 25 13 20 22 20 23 20 24 20 24 19 25 19 25 18 26 18 26 17 27 17 27 2 25 2"/>
  </g>
</svg>